<svg xmlns="http://www.w3.org/2000/svg" xmlns:xlink="http://www.w3.org/1999/xlink" xmlns:lucid="lucid" width="2000" height="1500"><g transform="translate(500 500)" lucid:page-tab-id="0_0"><path d="M1 138.67h435.68M1.03 138.67H0M419.32 148.85l17.22-10.18-17.22-10.18" stroke="#5e5e5e" stroke-width="2" fill="none"/><use xlink:href="#a" transform="matrix(1,0,0,1,128.56858570261525,115.92534942807718) translate(0 14.791666666666659)"/><use xlink:href="#b" transform="matrix(1,0,0,1,128.56858570261525,115.92534942807718) translate(24.295138888888875 14.791666666666659)"/><path d="M480 84.03v2.04m0 8.14v4.08m0 8.14v4.07m0 8.13v4.07m0 8.14v4.07m0 8.16v4.07m0 8.14v4.07m0 8.14v4.07m0 8.14v4.06m0 8.14v4.07m0 8.14v4.08m0 8.14v4.08m0 8.14v4.07m0 8.15v4.07m0 8.14v4.07m0 8.14v4.07m0 8.14v4.07m0 8.14v4.06m0 8.15v4.08m0 8.14v4.07m0 8.13v4.07m0 8.14v4.07m0 8.15v4.07m0 8.14v4.07m0 8.14v4.08m0 8.14v4.06m0 8.14v4.07m0 8.14v4.08m0 8.14V428m0 8.13v4.07m0 8.14v4.08m0 8.14v4.07m0 8.14v4.07m0 8.14v4.07m0 8.14v4.06m0 8.14v4.07m0 8.14v4.08m0 8.15v4.06m0 8.14v4.07m0 8.15v4.07m0 8.14v4.07m0 8.14v4.07m0 8.14v4.07m0 8.14v4.06m0 8.14v4.08m0 8.14v4.07m0 8.13v4.07m0 8.14V660m0 8.15v4.07m0 8.14v4.07m0 8.14v4.07m0 8.15v4.06m0 8.14v2.03" stroke="#5e5e5e" stroke-width="2" fill="none"/><path d="M481 84.06h-2v-1.03h2z" stroke="#5e5e5e" stroke-width=".05" fill="#5e5e5e"/><path d="M480 719v1.03M1 380h435.68M1.03 380H0M419.32 390.18L436.54 380l-17.22-10.18" stroke="#5e5e5e" stroke-width="2" fill="none"/><use xlink:href="#c" transform="matrix(1,0,0,1,112.56597448952633,357.2586797438661) translate(0 14.791666666666659)"/><use xlink:href="#d" transform="matrix(1,0,0,1,112.56597448952633,357.2586797438661) translate(32.005208333333314 14.791666666666659)"/><path d="M482.5 420.05H900" stroke="#5e5e5e" stroke-width="2" fill="none"/><path d="M482.53 421.05h-1.03v-2h1.03z" stroke="#5e5e5e" stroke-width=".05" fill="#5e5e5e"/><path d="M915.26 420.05L901 424.68v-9.27z" stroke="#5e5e5e" stroke-width="2" fill="#5e5e5e"/><use xlink:href="#e" transform="matrix(1,0,0,1,539.973927405571,397.30532902639413) translate(0 14.791666666666668)"/><use xlink:href="#f" transform="matrix(1,0,0,1,539.973927405571,397.30532902639413) translate(32.005208333333336 14.791666666666668)"/><path d="M917.5 454.7h-2m-8.05 0h-4.02m-8.04 0h-4.03m-8.04 0h-4.02m-8.03 0h-4.02m-8.04 0h-4m-8.05 0h-4.02m-8.04 0h-4.03m-8.05 0h-4m-8.05 0h-4.03m-8.04 0h-4.02m-8.04 0h-4.02m-8.04 0h-4.02m-8.04 0h-4.02m-8.04 0h-4.02m-8.04 0h-4.02m-8.04 0h-4.02m-8.04 0h-4.02m-8.04 0h-4.02m-8.04 0h-4.02m-8.04 0h-4.02m-8.04 0h-4.02m-8.04 0h-4.02m-8.04 0h-4.02m-8.04 0h-4.02m-8.04 0h-4.02m-8.05 0h-4.02m-8.03 0h-4.02m-8.04 0h-4m-8.05 0h-4.02m-8.04 0h-4.03m-8.04 0h-4.02m-8.03 0h-4.02m-8.04 0h-4m-8.05 0h-4.02m-8.04 0h-4.03m-8.04 0h-2" stroke="#5e5e5e" stroke-width="2" fill="none"/><path d="M918.5 455.7h-1.03v-2h1.03z" stroke="#5e5e5e" stroke-width=".05" fill="#5e5e5e"/><path d="M500.68 444.53l-17.22 10.18 17.22 10.2" stroke="#5e5e5e" stroke-width="2" fill="none"/><use xlink:href="#g" transform="matrix(1,0,0,1,641.3237849123595,458.7133130428922) translate(0 14.791666666666668)"/><use xlink:href="#h" transform="matrix(1,0,0,1,641.3237849123595,458.7133130428922) translate(32.005208333333336 14.791666666666668)"/><use xlink:href="#i" transform="matrix(1,0,0,1,641.3237849123595,458.7133130428922) translate(96.015625 14.791666666666668)"/><path d="M481 486.67h50.02a6 6 0 0 1 6 6v40a6 6 0 0 1-6 6h-15.5M481.03 486.67H480" stroke="#5e5e5e" stroke-width="2" fill="none"/><path d="M500.26 538.67l14.26-4.64v9.27z" stroke="#5e5e5e" stroke-width="2" fill="#5e5e5e"/><use xlink:href="#g" transform="matrix(1,0,0,1,545.0212550586465,522.9984143334932) translate(0 14.791666666666668)"/><use xlink:href="#j" transform="matrix(1,0,0,1,545.0212550586465,522.9984143334932) translate(32.005208333333336 14.791666666666668)"/><path d="M481 615.8h419M481.03 615.8H480" stroke="#5e5e5e" stroke-width="2" fill="none"/><path d="M915.26 615.8L901 620.4v-9.27z" stroke="#5e5e5e" stroke-width="2" fill="#5e5e5e"/><use xlink:href="#k" transform="matrix(1,0,0,1,555.2265694239145,593.0444804409327) translate(0 14.791666666666668)"/><use xlink:href="#l" transform="matrix(1,0,0,1,555.2265694239145,593.0444804409327) translate(32.005208333333336 14.791666666666668)"/><path d="M437.5 660H1.82" stroke="#5e5e5e" stroke-width="2" fill="none"/><path d="M438.5 661h-1.03v-2h1.03z" stroke="#5e5e5e" stroke-width=".05" fill="#5e5e5e"/><path d="M19.18 649.82L1.96 660l17.22 10.18" stroke="#5e5e5e" stroke-width="2" fill="none"/><use xlink:href="#m" transform="matrix(1,0,0,1,101.89760613696355,663.9999982680835) translate(0 14.791666666666668)"/><use xlink:href="#n" transform="matrix(1,0,0,1,101.89760613696355,663.9999982680835) translate(32.005208333333336 14.791666666666668)"/><path d="M880 6.77a6 6 0 0 1 6-6h148a6 6 0 0 1 6 6v68a6 6 0 0 1-6 6H886a6 6 0 0 1-6-6z" stroke="#5e5e5e" stroke-width="3" fill="#fff"/><use xlink:href="#o" transform="matrix(1,0,0,1,880.0000000000005,0.7666781106073657) translate(26.662986111111103 36.00043402777778)"/><use xlink:href="#p" transform="matrix(1,0,0,1,880.0000000000005,0.7666781106073657) translate(106.67600694444445 36.00043402777778)"/><use xlink:href="#q" transform="matrix(1,0,0,1,880.0000000000005,0.7666781106073657) translate(46.66624131944444 59.43793402777778)"/><path d="M960 83.27v2.02m0 8.1v4.04m0 8.1v4.04m0 8.1v4.05m0 8.1v4.05m0 8.1V146m0 8.1v4.05m0 8.1v4.04m0 8.1v4.06m0 8.1v4.05m0 8.1v4.05m0 8.1v4.05m0 8.1v4.04m0 8.1v4.05m0 8.1v4.04m0 8.1v4.04m0 8.1v4.05m0 8.1v4.05m0 8.1v4.04m0 8.1v4.05m0 8.1v4.04m0 8.1v4.06m0 8.1v4.05m0 8.1v4.05m0 8.1v4.05m0 8.1v4.04m0 8.1v4.05m0 8.1v4.04m0 8.1v4.04m0 8.1v4.05m0 8.1v4.05m0 8.1v4.04m0 8.1v4.05m0 8.1v4.04m0 8.1v4.06m0 8.1v4.05m0 8.1v4.05m0 8.1v4.05m0 8.1v4.05m0 8.1v4.04m0 8.1v4.04m0 8.1v4.04m0 8.1v4.05m0 8.1v4.05m0 8.1v4.04m0 8.1v4.05m0 8.1V644m0 8.1v4.06m0 8.1v4.05m0 8.1v4.05m0 8.1v2.02" stroke="#5e5e5e" stroke-width="2" fill="none"/><path d="M961 83.3h-2v-1.03h2z" stroke="#5e5e5e" stroke-width=".05" fill="#5e5e5e"/><path d="M960 690.55v1.02" stroke="#5e5e5e" stroke-width="2" fill="none"/><path d="M920 406.03a6 6 0 0 1 6-6h28a6 6 0 0 1 6 6v68a6 6 0 0 1-6 6h-28a6 6 0 0 1-6-6zM920 606a6 6 0 0 1 6-6h28a6 6 0 0 1 6 6v70.67a6 6 0 0 1-6 6h-28a6 6 0 0 1-6-6zM-80 7.53a6 6 0 0 1 6-6H74a6 6 0 0 1 6 6V74a6 6 0 0 1-6 6H-74a6 6 0 0 1-6-6z" stroke="#5e5e5e" stroke-width="3" fill="#fff"/><use xlink:href="#r" transform="matrix(1,0,0,1,-80,1.5333562212147243) translate(46.66624131944444 45.65668402777778)"/><path d="M0 82.5v1.97m0 7.85v3.93m0 7.86v3.94m0 7.86v3.93m0 7.86v3.92m0 7.85v3.93m0 7.86v3.93m0 7.85v3.93m0 7.86v3.93m0 7.85v3.93m0 7.86v3.94m0 7.86v3.93M0 222v3.92m0 7.86v3.92m0 7.86v3.93m0 7.85v3.93m0 7.86v3.93m0 7.86v3.93m0 7.85v3.94m0 7.86v3.93m0 7.86v3.92m0 7.86V332m0 7.86v3.93m0 7.85v3.93m0 7.86v3.93m0 7.86v3.93M0 387v3.94m0 7.86V402.73m0 7.86v3.92m0 7.86v3.93m0 7.87v3.92m0 7.85v3.93m0 7.86v3.93m0 7.86v3.93m0 7.86v3.93m0 7.85v3.93m0 7.86v3.92m0 7.86v3.93m0 7.87v3.92m0 7.85v3.93m0 7.86v3.93m0 7.86v3.93m0 7.86v3.93m0 7.85v3.93m0 7.86v3.92m0 7.86v3.93m0 7.87v3.93m0 7.85v3.93m0 7.86v3.93m0 7.86v3.93m0 7.86v3.93m0 7.86v3.93m0 7.86v3.92m0 7.86v3.93m0 7.87v1.96" stroke="#5e5e5e" stroke-width="2" fill="none"/><path d="M1 82.53h-2V81.5h2z" stroke="#5e5e5e" stroke-width=".05" fill="#5e5e5e"/><path d="M0 719v1.03" stroke="#5e5e5e" stroke-width="2" fill="none"/><path d="M440 126a6 6 0 0 1 6-6h28a6 6 0 0 1 6 6v68a6 6 0 0 1-6 6h-28a6 6 0 0 1-6-6zM400 7.53a6 6 0 0 1 6-6h148a6 6 0 0 1 6 6v68a6 6 0 0 1-6 6H406a6 6 0 0 1-6-6z" stroke="#5e5e5e" stroke-width="3" fill="#fff"/><use xlink:href="#s" transform="matrix(1,0,0,1,400.00000000000017,1.5333562212147172) translate(33.33073784722221 36.00043402777778)"/><use xlink:href="#t" transform="matrix(1,0,0,1,400.00000000000017,1.5333562212147172) translate(53.33399305555556 59.43793402777778)"/><path d="M440 366.03a6 6 0 0 1 6-6h28a6 6 0 0 1 6 6v308a6 6 0 0 1-6 6h-28a6 6 0 0 1-6-6z" stroke="#5e5e5e" stroke-width="3" fill="#fff"/><path d="M455.52 506a6 6 0 0 1 6-6h28a6 6 0 0 1 6 6v68a6 6 0 0 1-6 6h-28a6 6 0 0 1-6-6z" stroke="#5e5e5e" stroke-width="3" fill="#fff"/><path d="M1 264h435.68M1.03 264H0M419.32 274.18L436.54 264l-17.22-10.18" stroke="#5e5e5e" stroke-width="2" fill="none"/><g><use xlink:href="#u" transform="matrix(1,0,0,1,75.22657719410373,241.2586805555556) translate(0 14.791666666666659)"/><use xlink:href="#v" transform="matrix(1,0,0,1,75.22657719410373,241.2586805555556) translate(32.005208333333314 14.791666666666659)"/></g><path d="M440 244.47a6 6 0 0 1 6-6h28a6 6 0 0 1 6 6v66.46a6 6 0 0 1-6 6h-28a6 6 0 0 1-6-6z" stroke="#5e5e5e" stroke-width="3" fill="#fff"/><path d="M53.15-152a8 8 0 0 1 8-8H897.9a8 8 0 0 1 8 8v69.55a8 8 0 0 1-8 8H61.15a8 8 0 0 1-8-8z" stroke="#000" stroke-width="2" fill="#ffd6f5"/><g><use xlink:href="#w" transform="matrix(1,0,0,1,57.146552785343374,-156) translate(145.35198883161513 47.50463487972509)"/><use xlink:href="#x" transform="matrix(1,0,0,1,57.146552785343374,-156) translate(293.8297594501718 47.50463487972509)"/><use xlink:href="#y" transform="matrix(1,0,0,1,57.146552785343374,-156) translate(475.3025902061855 47.50463487972509)"/><use xlink:href="#z" transform="matrix(1,0,0,1,57.146552785343374,-156) translate(623.7803608247423 47.50463487972509)"/></g><path d="M241.9-77.24h483.9M241.92-77.24h-1.03M725.8-77.24h1" stroke="#000" stroke-width="2" fill="none"/><path d="M53.15-68.92a8 8 0 0 1 8-8h837.7a8 8 0 0 1 8 8V-48a8 8 0 0 1-8 8H61.15a8 8 0 0 1-8-8z" stroke="#000" stroke-width="2" fill="#ffd6f5"/><g><use xlink:href="#A" transform="matrix(1,0,0,1,57.14655278534377,-72.91601791866304) translate(228.9556615306713 19.03199652777778)"/><use xlink:href="#B" transform="matrix(1,0,0,1,57.14655278534377,-72.91601791866304) translate(274.85201931423614 19.03199652777778)"/><use xlink:href="#C" transform="matrix(1,0,0,1,57.14655278534377,-72.91601791866304) translate(339.10692021122685 19.03199652777778)"/><use xlink:href="#D" transform="matrix(1,0,0,1,57.14655278534377,-72.91601791866304) translate(430.89963577835647 19.03199652777778)"/><use xlink:href="#E" transform="matrix(1,0,0,1,57.14655278534377,-72.91601791866304) translate(458.4374504484954 19.03199652777778)"/><use xlink:href="#F" transform="matrix(1,0,0,1,57.14655278534377,-72.91601791866304) translate(550.230166015625 19.03199652777778)"/><use xlink:href="#G" transform="matrix(1,0,0,1,57.14655278534377,-72.91601791866304) translate(586.9472522424769 19.03199652777778)"/></g><defs><path fill="#333" d="M148-1120c216-7 379-89 463-229h166v1204h353V0H157v-145h439v-1021c-79 124-254 184-448 194v-148" id="H"/><path fill="#333" d="M496 0v-299h235V0H496" id="I"/><g id="a"><use transform="matrix(0.00868055555555555,0,0,0.00868055555555555,0,0)" xlink:href="#H"/><use transform="matrix(0.00868055555555555,0,0,0.00868055555555555,10.668402777777771,0)" xlink:href="#I"/></g><path fill="#333" d="M650-1214c-281 0-336 244-336 533 0 295 60 546 347 546 188 0 263-142 322-282l159 65C1058-155 935 20 659 20c-401 0-546-295-546-701 0-407 135-689 536-689 264 0 391 146 466 335l-168 65c-47-129-127-244-297-244" id="J"/><path fill="#333" d="M839-1102c70 0 148 7 206 17v167c-112-18-268-36-363 15-129 69-208 203-208 395V0H294c-10-367 32-789-52-1082h171c21 75 41 161 48 250h5c67-152 152-270 373-270" id="K"/><path fill="#333" d="M745-142h380V0H143v-142h422v-798H246v-142h499v940zM545-1292v-192h200v192H545" id="L"/><path fill="#333" d="M1000-272c3 95 12 159 101 161 21 0 41-3 59-7V-6c-44 10-86 16-139 16-141 2-191-84-197-217h-6C748-76 648 20 446 20c-207 0-318-120-318-322 0-266 194-348 454-354l236-4c12-191-40-305-222-305-140 0-220 47-232 172l-188-17c33-204 181-292 423-292 255 0 401 118 401 364v466zm-683-27c0 109 63 184 175 182 166-3 259-96 306-217 24-65 20-120 20-200-232 7-501-28-501 235" id="M"/><path fill="#333" d="M615-1102c343 0 484 203 482 560-1 347-147 562-488 562-336 0-475-219-479-562-4-349 156-560 485-560zm-8 989c240 0 301-180 301-429 0-245-55-427-290-427-236 0-299 181-299 427 0 243 61 429 288 429" id="N"/><path fill="#333" d="M706-1102c241 0 344 136 343 381V0H868v-695c1-168-57-273-220-268-190 6-283 138-283 336V0H185c-3-360 6-732-6-1082h170c4 54 7 126 8 185h3c63-121 164-204 346-205" id="O"/><path fill="#333" d="M682 16c-209 0-323-80-324-285v-671H190v-142h170l58-282h120v282h432v142H538v652c2 114 60 155 182 155 106 0 209-16 297-34v137C921-4 806 16 682 16" id="P"/><path fill="#333" d="M604-135c236 0 291-142 291-376v-838h190v859c5 340-142 510-480 510-326 0-463-164-463-492v-877h191v851c-3 222 46 363 271 363" id="Q"/><path fill="#333" d="M873-819c-18-114-119-146-250-146-163 0-245 50-245 151 0 151 170 148 294 185 182 54 388 94 388 320 0 240-189 325-439 329-245 4-410-69-454-268l159-31c24 133 136 168 295 165 144-2 270-31 270-171 0-164-195-160-331-202-167-52-350-87-350-299 0-218 173-315 413-313 220 2 373 77 412 260" id="R"/><path fill="#333" d="M528 20c-247 0-343-132-343-381v-721h180v686c-4 177 45 284 224 277 194-8 279-136 279-336v-627h181c3 360-6 732 6 1082H885c-4-54-7-126-8-185h-3C809-64 714 20 528 20" id="S"/><g id="b"><use transform="matrix(0.00868055555555555,0,0,0.00868055555555555,0,0)" xlink:href="#J"/><use transform="matrix(0.00868055555555555,0,0,0.00868055555555555,10.668402777777771,0)" xlink:href="#K"/><use transform="matrix(0.00868055555555555,0,0,0.00868055555555555,21.336805555555543,0)" xlink:href="#L"/><use transform="matrix(0.00868055555555555,0,0,0.00868055555555555,32.005208333333314,0)" xlink:href="#M"/><use transform="matrix(0.00868055555555555,0,0,0.00868055555555555,42.673611111111086,0)" xlink:href="#K"/><use transform="matrix(0.00868055555555555,0,0,0.00868055555555555,53.34201388888886,0)" xlink:href="#J"/><use transform="matrix(0.00868055555555555,0,0,0.00868055555555555,64.01041666666663,0)" xlink:href="#N"/><use transform="matrix(0.00868055555555555,0,0,0.00868055555555555,74.6788194444444,0)" xlink:href="#O"/><use transform="matrix(0.00868055555555555,0,0,0.00868055555555555,85.34722222222217,0)" xlink:href="#P"/><use transform="matrix(0.00868055555555555,0,0,0.00868055555555555,96.01562499999994,0)" xlink:href="#M"/><use transform="matrix(0.00868055555555555,0,0,0.00868055555555555,106.68402777777771,0)" xlink:href="#Q"/><use transform="matrix(0.00868055555555555,0,0,0.00868055555555555,117.35243055555549,0)" xlink:href="#R"/><use transform="matrix(0.00868055555555555,0,0,0.00868055555555555,128.02083333333326,0)" xlink:href="#S"/><use transform="matrix(0.00868055555555555,0,0,0.00868055555555555,138.68923611111103,0)" xlink:href="#M"/><use transform="matrix(0.00868055555555555,0,0,0.00868055555555555,149.3576388888888,0)" xlink:href="#K"/><use transform="matrix(0.00868055555555555,0,0,0.00868055555555555,160.02604166666657,0)" xlink:href="#L"/><use transform="matrix(0.00868055555555555,0,0,0.00868055555555555,170.69444444444434,0)" xlink:href="#N"/></g><path fill="#333" d="M1060-1016c0 191-128 285-295 323v4c154 18 262 91 313 209 14 35 21 72 21 110 0 277-194 390-478 390-292 0-457-129-493-382l186-17c24 161 121 250 307 250 172 1 298-80 291-247-8-208-220-239-446-233v-156c217 9 409-34 409-232 0-152-102-225-264-225-159 0-264 88-278 233l-181-14c33-239 196-367 461-367 264 0 447 102 447 354" id="T"/><g id="c"><use transform="matrix(0.00868055555555555,0,0,0.00868055555555555,0,0)" xlink:href="#T"/><use transform="matrix(0.00868055555555555,0,0,0.00868055555555555,10.668402777777771,0)" xlink:href="#I"/></g><path fill="#333" d="M162 0v-1349h919v156H353v422h668v154H353v461h769V0H162" id="U"/><path fill="#333" d="M715 0H502L69-1082h202c94 253 197 500 285 758 19 57 36 126 52 183 96-335 234-626 350-941h201" id="V"/><path fill="#333" d="M473-1349c438-1 655 221 652 661C1122-268 945-8 532 0H162v-1349h311zm42 1193c308-4 416-205 418-532 2-330-131-509-459-505H353v1037h162" id="W"/><path fill="#333" d="M865-914c-3-187-2-380-2-570h180v1261c0 76 1 155 6 223H877c-8-49-9-116-10-174h-5C801-44 708 26 530 26c-135 0-234-46-297-139s-95-232-95-419c0-377 131-566 392-566 176 0 271 63 335 184zm-286-51c-222 0-255 197-255 427 0 229 31 425 253 425 237 0 286-195 286-441 0-238-52-411-284-411" id="X"/><g id="d"><use transform="matrix(0.00868055555555555,0,0,0.00868055555555555,0,0)" xlink:href="#U"/><use transform="matrix(0.00868055555555555,0,0,0.00868055555555555,10.668402777777771,0)" xlink:href="#O"/><use transform="matrix(0.00868055555555555,0,0,0.00868055555555555,21.336805555555543,0)" xlink:href="#V"/><use transform="matrix(0.00868055555555555,0,0,0.00868055555555555,32.005208333333314,0)" xlink:href="#L"/><use transform="matrix(0.00868055555555555,0,0,0.00868055555555555,42.673611111111086,0)" xlink:href="#M"/><use transform="matrix(0.00868055555555555,0,0,0.00868055555555555,53.34201388888886,0)" xlink:href="#W"/><use transform="matrix(0.00868055555555555,0,0,0.00868055555555555,64.01041666666663,0)" xlink:href="#M"/><use transform="matrix(0.00868055555555555,0,0,0.00868055555555555,74.6788194444444,0)" xlink:href="#X"/><use transform="matrix(0.00868055555555555,0,0,0.00868055555555555,85.34722222222217,0)" xlink:href="#N"/><use transform="matrix(0.00868055555555555,0,0,0.00868055555555555,96.01562499999994,0)" xlink:href="#R"/><use transform="matrix(0.00868055555555555,0,0,0.00868055555555555,106.68402777777771,0)" xlink:href="#Q"/><use transform="matrix(0.00868055555555555,0,0,0.00868055555555555,117.35243055555549,0)" xlink:href="#R"/><use transform="matrix(0.00868055555555555,0,0,0.00868055555555555,128.02083333333326,0)" xlink:href="#S"/><use transform="matrix(0.00868055555555555,0,0,0.00868055555555555,138.68923611111103,0)" xlink:href="#M"/><use transform="matrix(0.00868055555555555,0,0,0.00868055555555555,149.3576388888888,0)" xlink:href="#K"/><use transform="matrix(0.00868055555555555,0,0,0.00868055555555555,160.02604166666657,0)" xlink:href="#L"/><use transform="matrix(0.00868055555555555,0,0,0.00868055555555555,170.69444444444434,0)" xlink:href="#N"/></g><path fill="#333" d="M937-319V0H757v-319H103v-140l635-890h199v888h188v142H937zm-180-835L257-461h500v-693" id="Y"/><g id="e"><use transform="matrix(0.008680555555555556,0,0,0.008680555555555556,0,0)" xlink:href="#Y"/><use transform="matrix(0.008680555555555556,0,0,0.008680555555555556,10.668402777777779,0)" xlink:href="#I"/></g><path fill="#333" d="M713 0H515L10-1349h201C345-955 498-579 615-168c116-411 269-787 402-1181h201" id="Z"/><path fill="#333" d="M617-1102c355 0 481 238 477 599H322c5 222 84 388 301 388 144 0 244-59 284-166l158 45C1002-72 854 20 623 20c-342 0-490-220-490-568 0-346 151-554 484-554zm291 461c-18-192-90-328-289-328-194 0-287 128-295 328h584" id="aa"/><path fill="#333" d="M839-1335c-182-6-269 67-259 253h491v142H580V0H400v-940H138v-142h262c-15-293 132-408 418-402 94 2 200 7 281 21v145c-75-10-177-14-260-17" id="ab"/><path fill="#333" d="M631 20c-350 0-501-215-501-562 0-355 162-560 502-560 250 0 399 118 446 323l-192 14c-23-124-109-196-262-196-242 0-305 171-305 415 1 245 61 427 304 427 151 0 248-77 267-215l190 12C1039-107 883 20 631 20" id="ac"/><path fill="#333" d="M891-1484c-201 251-362 514-362 954 0 441 161 704 362 955H701C500 176 342-90 342-532c0-440 159-704 359-952h190" id="ad"/><path fill="#333" d="M528-1484c201 248 357 511 357 952 0 442-156 709-357 957H336C537 174 700-89 700-530c0-440-163-703-364-954h192" id="ae"/><g id="f"><use transform="matrix(0.008680555555555556,0,0,0.008680555555555556,0,0)" xlink:href="#Z"/><use transform="matrix(0.008680555555555556,0,0,0.008680555555555556,10.668402777777779,0)" xlink:href="#aa"/><use transform="matrix(0.008680555555555556,0,0,0.008680555555555556,21.336805555555557,0)" xlink:href="#K"/><use transform="matrix(0.008680555555555556,0,0,0.008680555555555556,32.005208333333336,0)" xlink:href="#L"/><use transform="matrix(0.008680555555555556,0,0,0.008680555555555556,42.673611111111114,0)" xlink:href="#ab"/><use transform="matrix(0.008680555555555556,0,0,0.008680555555555556,53.34201388888889,0)" xlink:href="#L"/><use transform="matrix(0.008680555555555556,0,0,0.008680555555555556,64.01041666666667,0)" xlink:href="#ac"/><use transform="matrix(0.008680555555555556,0,0,0.008680555555555556,74.67881944444446,0)" xlink:href="#M"/><use transform="matrix(0.008680555555555556,0,0,0.008680555555555556,85.34722222222223,0)" xlink:href="#W"/><use transform="matrix(0.008680555555555556,0,0,0.008680555555555556,96.015625,0)" xlink:href="#M"/><use transform="matrix(0.008680555555555556,0,0,0.008680555555555556,106.68402777777777,0)" xlink:href="#X"/><use transform="matrix(0.008680555555555556,0,0,0.008680555555555556,117.35243055555554,0)" xlink:href="#N"/><use transform="matrix(0.008680555555555556,0,0,0.008680555555555556,128.02083333333331,0)" xlink:href="#R"/><use transform="matrix(0.008680555555555556,0,0,0.008680555555555556,138.6892361111111,0)" xlink:href="#Q"/><use transform="matrix(0.008680555555555556,0,0,0.008680555555555556,149.35763888888886,0)" xlink:href="#R"/><use transform="matrix(0.008680555555555556,0,0,0.008680555555555556,160.02604166666663,0)" xlink:href="#S"/><use transform="matrix(0.008680555555555556,0,0,0.008680555555555556,170.6944444444444,0)" xlink:href="#M"/><use transform="matrix(0.008680555555555556,0,0,0.008680555555555556,181.36284722222217,0)" xlink:href="#K"/><use transform="matrix(0.008680555555555556,0,0,0.008680555555555556,192.03124999999994,0)" xlink:href="#L"/><use transform="matrix(0.008680555555555556,0,0,0.008680555555555556,202.69965277777771,0)" xlink:href="#N"/><use transform="matrix(0.008680555555555556,0,0,0.008680555555555556,213.36805555555546,0)" xlink:href="#ad"/><use transform="matrix(0.008680555555555556,0,0,0.008680555555555556,224.03645833333326,0)" xlink:href="#X"/><use transform="matrix(0.008680555555555556,0,0,0.008680555555555556,234.70486111111103,0)" xlink:href="#M"/><use transform="matrix(0.008680555555555556,0,0,0.008680555555555556,245.3732638888888,0)" xlink:href="#X"/><use transform="matrix(0.008680555555555556,0,0,0.008680555555555556,256.0416666666666,0)" xlink:href="#N"/><use transform="matrix(0.008680555555555556,0,0,0.008680555555555556,266.71006944444434,0)" xlink:href="#R"/><use transform="matrix(0.008680555555555556,0,0,0.008680555555555556,277.3784722222221,0)" xlink:href="#ae"/></g><path fill="#333" d="M353-779c69-51 166-92 291-90 218 3 357 100 423 255 21 52 32 109 32 170 0 305-189 464-500 464-268 0-424-116-471-335l182-21c35 130 124 212 293 209 198-4 309-114 309-313 0-182-118-282-305-282-120 0-198 45-262 101H169l47-728h801v145H382" id="af"/><g id="g"><use transform="matrix(0.008680555555555556,0,0,0.008680555555555556,0,0)" xlink:href="#af"/><use transform="matrix(0.008680555555555556,0,0,0.008680555555555556,10.668402777777779,0)" xlink:href="#I"/></g><g id="h"><use transform="matrix(0.008680555555555556,0,0,0.008680555555555556,0,0)" xlink:href="#W"/><use transform="matrix(0.008680555555555556,0,0,0.008680555555555556,10.668402777777779,0)" xlink:href="#M"/><use transform="matrix(0.008680555555555556,0,0,0.008680555555555556,21.336805555555557,0)" xlink:href="#X"/><use transform="matrix(0.008680555555555556,0,0,0.008680555555555556,32.005208333333336,0)" xlink:href="#N"/><use transform="matrix(0.008680555555555556,0,0,0.008680555555555556,42.673611111111114,0)" xlink:href="#R"/></g><path fill="#333" d="M102-681c0-398 126-689 513-689 165 0 291 58 379 174s132 287 132 515c-1 318-88 554-298 657-123 61-317 58-438-3-206-104-288-341-288-654zm749 406c94-160 97-656-5-807-57-85-130-132-231-132-104 0-178 47-234 132-101 153-99 655 1 809 57 89 130 138 232 138 109 0 184-49 237-140" id="ag"/><path fill="#333" d="M1003 0L516-638 353-469V0H162v-1349h191v673l572-673h225L646-777 1227 0h-224" id="ah"/><g id="i"><use transform="matrix(0.008680555555555556,0,0,0.008680555555555556,0,0)" xlink:href="#ag"/><use transform="matrix(0.008680555555555556,0,0,0.008680555555555556,10.668402777777779,0)" xlink:href="#ah"/></g><g id="j"><use transform="matrix(0.008680555555555556,0,0,0.008680555555555556,0,0)" xlink:href="#J"/><use transform="matrix(0.008680555555555556,0,0,0.008680555555555556,10.668402777777779,0)" xlink:href="#K"/><use transform="matrix(0.008680555555555556,0,0,0.008680555555555556,21.336805555555557,0)" xlink:href="#L"/><use transform="matrix(0.008680555555555556,0,0,0.008680555555555556,32.005208333333336,0)" xlink:href="#M"/><use transform="matrix(0.008680555555555556,0,0,0.008680555555555556,42.673611111111114,0)" xlink:href="#J"/><use transform="matrix(0.008680555555555556,0,0,0.008680555555555556,53.34201388888889,0)" xlink:href="#N"/><use transform="matrix(0.008680555555555556,0,0,0.008680555555555556,64.01041666666667,0)" xlink:href="#O"/><use transform="matrix(0.008680555555555556,0,0,0.008680555555555556,74.67881944444446,0)" xlink:href="#P"/><use transform="matrix(0.008680555555555556,0,0,0.008680555555555556,85.34722222222223,0)" xlink:href="#M"/><use transform="matrix(0.008680555555555556,0,0,0.008680555555555556,96.015625,0)" xlink:href="#Q"/><use transform="matrix(0.008680555555555556,0,0,0.008680555555555556,106.68402777777777,0)" xlink:href="#R"/><use transform="matrix(0.008680555555555556,0,0,0.008680555555555556,117.35243055555554,0)" xlink:href="#S"/><use transform="matrix(0.008680555555555556,0,0,0.008680555555555556,128.02083333333331,0)" xlink:href="#M"/><use transform="matrix(0.008680555555555556,0,0,0.008680555555555556,138.6892361111111,0)" xlink:href="#K"/><use transform="matrix(0.008680555555555556,0,0,0.008680555555555556,149.35763888888886,0)" xlink:href="#L"/><use transform="matrix(0.008680555555555556,0,0,0.008680555555555556,160.02604166666663,0)" xlink:href="#N"/><use transform="matrix(0.008680555555555556,0,0,0.008680555555555556,170.6944444444444,0)" xlink:href="#ad"/><use transform="matrix(0.008680555555555556,0,0,0.008680555555555556,181.36284722222217,0)" xlink:href="#X"/><use transform="matrix(0.008680555555555556,0,0,0.008680555555555556,192.03124999999994,0)" xlink:href="#M"/><use transform="matrix(0.008680555555555556,0,0,0.008680555555555556,202.69965277777771,0)" xlink:href="#X"/><use transform="matrix(0.008680555555555556,0,0,0.008680555555555556,213.36805555555546,0)" xlink:href="#N"/><use transform="matrix(0.008680555555555556,0,0,0.008680555555555556,224.03645833333326,0)" xlink:href="#R"/><use transform="matrix(0.008680555555555556,0,0,0.008680555555555556,234.70486111111103,0)" xlink:href="#ae"/></g><path fill="#333" d="M672-881c271 0 424 163 424 435 0 291-160 466-455 466-367 0-490-287-490-662 0-324 85-568 293-680 129-70 351-59 460 16 73 50 125 123 153 223l-172 31c-31-108-107-172-232-172-259 0-316 252-323 529 59-113 178-186 342-186zm-37 756c186 0 278-124 278-313s-96-304-284-304c-163 0-281 93-281 261 0 157 65 270 168 327 35 19 75 29 119 29" id="ai"/><g id="k"><use transform="matrix(0.008680555555555556,0,0,0.008680555555555556,0,0)" xlink:href="#ai"/><use transform="matrix(0.008680555555555556,0,0,0.008680555555555556,10.668402777777779,0)" xlink:href="#I"/></g><path fill="#333" d="M655-135c108 0 195-33 260-74v-336H622v-160h479v572C981-54 839 20 639 20c-388 0-526-306-526-701 0-406 129-689 529-689 261 0 392 137 461 331l-171 56c-47-131-122-231-288-231-281 0-330 245-330 533 0 179 28 314 84 407s142 139 257 139" id="aj"/><g id="l"><use transform="matrix(0.008680555555555556,0,0,0.008680555555555556,0,0)" xlink:href="#aj"/><use transform="matrix(0.008680555555555556,0,0,0.008680555555555556,10.668402777777779,0)" xlink:href="#K"/><use transform="matrix(0.008680555555555556,0,0,0.008680555555555556,21.336805555555557,0)" xlink:href="#M"/><use transform="matrix(0.008680555555555556,0,0,0.008680555555555556,32.005208333333336,0)" xlink:href="#V"/><use transform="matrix(0.008680555555555556,0,0,0.008680555555555556,42.673611111111114,0)" xlink:href="#M"/><use transform="matrix(0.008680555555555556,0,0,0.008680555555555556,53.34201388888889,0)" xlink:href="#W"/><use transform="matrix(0.008680555555555556,0,0,0.008680555555555556,64.01041666666667,0)" xlink:href="#M"/><use transform="matrix(0.008680555555555556,0,0,0.008680555555555556,74.67881944444446,0)" xlink:href="#X"/><use transform="matrix(0.008680555555555556,0,0,0.008680555555555556,85.34722222222223,0)" xlink:href="#N"/><use transform="matrix(0.008680555555555556,0,0,0.008680555555555556,96.015625,0)" xlink:href="#R"/><use transform="matrix(0.008680555555555556,0,0,0.008680555555555556,106.68402777777777,0)" xlink:href="#Q"/><use transform="matrix(0.008680555555555556,0,0,0.008680555555555556,117.35243055555554,0)" xlink:href="#R"/><use transform="matrix(0.008680555555555556,0,0,0.008680555555555556,128.02083333333331,0)" xlink:href="#S"/><use transform="matrix(0.008680555555555556,0,0,0.008680555555555556,138.6892361111111,0)" xlink:href="#M"/><use transform="matrix(0.008680555555555556,0,0,0.008680555555555556,149.35763888888886,0)" xlink:href="#K"/><use transform="matrix(0.008680555555555556,0,0,0.008680555555555556,160.02604166666663,0)" xlink:href="#L"/><use transform="matrix(0.008680555555555556,0,0,0.008680555555555556,170.6944444444444,0)" xlink:href="#N"/><use transform="matrix(0.008680555555555556,0,0,0.008680555555555556,181.36284722222217,0)" xlink:href="#ad"/><use transform="matrix(0.008680555555555556,0,0,0.008680555555555556,192.03124999999994,0)" xlink:href="#X"/><use transform="matrix(0.008680555555555556,0,0,0.008680555555555556,202.69965277777771,0)" xlink:href="#M"/><use transform="matrix(0.008680555555555556,0,0,0.008680555555555556,213.36805555555546,0)" xlink:href="#X"/><use transform="matrix(0.008680555555555556,0,0,0.008680555555555556,224.03645833333326,0)" xlink:href="#N"/><use transform="matrix(0.008680555555555556,0,0,0.008680555555555556,234.70486111111103,0)" xlink:href="#R"/><use transform="matrix(0.008680555555555556,0,0,0.008680555555555556,245.3732638888888,0)" xlink:href="#ae"/></g><path fill="#333" d="M1069-1210C890-948 720-664 634-316c-25 105-38 210-38 316H408c9-385 153-667 302-925 57-98 120-190 185-279H158v-145h911v139" id="ak"/><g id="m"><use transform="matrix(0.008680555555555556,0,0,0.008680555555555556,0,0)" xlink:href="#ak"/><use transform="matrix(0.008680555555555556,0,0,0.008680555555555556,10.668402777777779,0)" xlink:href="#I"/></g><path fill="#333" d="M904-1102c199 0 220 177 220 381V0H956v-686c-3-114 0-215-60-264-70-33-125-4-158 71-26 56-39 140-39 252V0H531v-686c-3-114-1-215-61-264-78-41-136 24-157 84-24 69-39 159-39 259V0H105c-3-360 6-732-6-1082h149c6 50 3 123 8 175 36-100 83-195 216-195 135 0 166 79 196 196 42-105 93-196 236-196" id="al"/><g id="n"><use transform="matrix(0.008680555555555556,0,0,0.008680555555555556,0,0)" xlink:href="#J"/><use transform="matrix(0.008680555555555556,0,0,0.008680555555555556,10.668402777777779,0)" xlink:href="#N"/><use transform="matrix(0.008680555555555556,0,0,0.008680555555555556,21.336805555555557,0)" xlink:href="#O"/><use transform="matrix(0.008680555555555556,0,0,0.008680555555555556,32.005208333333336,0)" xlink:href="#ab"/><use transform="matrix(0.008680555555555556,0,0,0.008680555555555556,42.673611111111114,0)" xlink:href="#L"/><use transform="matrix(0.008680555555555556,0,0,0.008680555555555556,53.34201388888889,0)" xlink:href="#K"/><use transform="matrix(0.008680555555555556,0,0,0.008680555555555556,64.01041666666667,0)" xlink:href="#al"/><use transform="matrix(0.008680555555555556,0,0,0.008680555555555556,74.67881944444446,0)" xlink:href="#M"/><use transform="matrix(0.008680555555555556,0,0,0.008680555555555556,85.34722222222223,0)" xlink:href="#J"/><use transform="matrix(0.008680555555555556,0,0,0.008680555555555556,96.015625,0)" xlink:href="#N"/><use transform="matrix(0.008680555555555556,0,0,0.008680555555555556,106.68402777777777,0)" xlink:href="#O"/><use transform="matrix(0.008680555555555556,0,0,0.008680555555555556,117.35243055555554,0)" xlink:href="#P"/><use transform="matrix(0.008680555555555556,0,0,0.008680555555555556,128.02083333333331,0)" xlink:href="#M"/><use transform="matrix(0.008680555555555556,0,0,0.008680555555555556,138.6892361111111,0)" xlink:href="#J"/><use transform="matrix(0.008680555555555556,0,0,0.008680555555555556,149.35763888888886,0)" xlink:href="#K"/><use transform="matrix(0.008680555555555556,0,0,0.008680555555555556,160.02604166666663,0)" xlink:href="#L"/><use transform="matrix(0.008680555555555556,0,0,0.008680555555555556,170.6944444444444,0)" xlink:href="#M"/><use transform="matrix(0.008680555555555556,0,0,0.008680555555555556,181.36284722222217,0)" xlink:href="#X"/><use transform="matrix(0.008680555555555556,0,0,0.008680555555555556,192.03124999999994,0)" xlink:href="#M"/></g><path fill="#333" d="M429-1484c1 190-1 388 0 572 54-116 155-191 317-191 300 0 386 257 386 563 0 241-73 429-226 518-49 28-106 42-169 42-162 0-251-81-306-196h-4c-1 59-5 127-15 176H140c4-67 9-153 8-236v-1248h281zm66 648c-93 114-92 466 1 585 35 45 77 79 142 79 64 0 112-31 148-92 69-115 68-440-2-561-39-68-131-111-221-70-25 11-46 32-68 59" id="am"/><path fill="#333" d="M775-193C708-75 621 20 439 20 226 20 106-93 106-306c0-251 170-341 417-346l223-4c4-143-12-264-148-264-103 0-141 58-150 153l-293-14c37-219 194-321 455-321 263 0 418 130 417 390v392c1 84 5 161 89 160 21 0 42-2 62-6v152c-57 15-108 27-180 26-145 0-202-73-217-205h-6zm-256 17c168 0 234-139 227-325-166 4-347-25-347 173 0 94 33 152 120 152" id="an"/><path fill="#333" d="M768-1103c247 0 336 167 336 416V0H824v-619c-3-164-24-273-171-273-164 0-229 142-229 312V0H143c-4-359 9-736-8-1082h268c7 63 12 146 13 215h4c67-145 160-236 348-236" id="ao"/><path fill="#333" d="M1109-360C1066-122 902 20 624 20c-347 0-514-209-514-555 0-353 168-567 518-567 270 0 425 136 473 361l-283 14c-16-106-75-183-196-182-75 0-130 31-165 93s-52 152-52 270c0 249 74 374 221 374 120 0 188-82 201-201" id="ap"/><path fill="#333" d="M616-1102c361 0 521 202 521 560 0 354-171 562-527 562C259 20 92-192 92-542c0-351 169-560 524-560zm-9 930c200-2 236-165 236-370 0-199-27-367-223-367-195 0-233 146-233 367 0 129 18 223 55 282s92 88 165 88" id="aq"/><g id="o"><use transform="matrix(0.010850694444444444,0,0,0.010850694444444444,0,0)" xlink:href="#am"/><use transform="matrix(0.010850694444444444,0,0,0.010850694444444444,13.335503472222221,0)" xlink:href="#an"/><use transform="matrix(0.010850694444444444,0,0,0.010850694444444444,26.671006944444443,0)" xlink:href="#ao"/><use transform="matrix(0.010850694444444444,0,0,0.010850694444444444,40.006510416666664,0)" xlink:href="#ap"/><use transform="matrix(0.010850694444444444,0,0,0.010850694444444444,53.342013888888886,0)" xlink:href="#aq"/></g><path fill="#333" d="M802-909c-3-189-2-383-2-575h281v1248c-1 83 4 168 8 236H817c-9-50-14-117-15-176h-4C735-49 651 20 482 20 191 20 97-238 97-539c0-243 66-432 221-519 50-28 108-42 175-42 162 2 253 78 309 191zm-70 658c91-113 93-462 2-584-46-61-145-100-224-53-96 56-119 190-120 349 0 123 17 214 52 275 46 82 130 115 222 74 25-12 46-33 68-61" id="ar"/><path fill="#333" d="M1113-274C1038-96 884 20 626 20c-352 0-526-209-526-566 0-358 185-556 530-556 358 0 496 251 499 615H395c5 180 68 319 245 319 102 0 186-45 208-129zM857-663c-6-177-128-307-315-247-94 30-141 121-145 247h460" id="as"/><g id="p"><use transform="matrix(0.010850694444444444,0,0,0.010850694444444444,0,0)" xlink:href="#ar"/><use transform="matrix(0.010850694444444444,0,0,0.010850694444444444,13.335503472222221,0)" xlink:href="#as"/></g><path fill="#333" d="M622-916c-112 2-200 14-200 111 0 90 89 101 168 121 234 58 514 77 514 368C1104-4 751 54 434 5 267-21 161-112 121-270l247-37c24 111 113 145 252 141 114-3 226-12 226-124 0-101-103-113-192-134-225-54-490-76-490-351 0-247 201-328 458-328 245 0 413 88 457 292l-249 26c-16-98-92-133-208-131" id="at"/><g id="q"><use transform="matrix(0.010850694444444444,0,0,0.010850694444444444,0,0)" xlink:href="#ar"/><use transform="matrix(0.010850694444444444,0,0,0.010850694444444444,13.335503472222221,0)" xlink:href="#an"/><use transform="matrix(0.010850694444444444,0,0,0.010850694444444444,26.671006944444443,0)" xlink:href="#ar"/><use transform="matrix(0.010850694444444444,0,0,0.010850694444444444,40.006510416666664,0)" xlink:href="#aq"/><use transform="matrix(0.010850694444444444,0,0,0.010850694444444444,53.342013888888886,0)" xlink:href="#at"/></g><path fill="#333" d="M934-1102c199 0 220 177 220 381V0H926c-2-260 10-533-4-785-4-72-14-138-83-138-34 0-61 27-81 81s-29 134-29 241V0H501c-2-260 9-533-5-785-4-72-13-138-82-138-46 0-65 47-80 93-21 67-30 155-30 248V0H75c-3-360 6-732-6-1082h209c6 50 3 123 8 175 36-100 83-195 216-195 135 0 166 79 196 196 42-105 93-196 236-196" id="au"/><path fill="#333" d="M794-190h353V0H118v-190h395v-702H223v-190h571v892zM513-1277v-207h281v207H513" id="av"/><g id="r"><use transform="matrix(0.010850694444444444,0,0,0.010850694444444444,0,0)" xlink:href="#an"/><use transform="matrix(0.010850694444444444,0,0,0.010850694444444444,13.335503472222221,0)" xlink:href="#ar"/><use transform="matrix(0.010850694444444444,0,0,0.010850694444444444,26.671006944444443,0)" xlink:href="#au"/><use transform="matrix(0.010850694444444444,0,0,0.010850694444444444,40.006510416666664,0)" xlink:href="#av"/><use transform="matrix(0.010850694444444444,0,0,0.010850694444444444,53.342013888888886,0)" xlink:href="#ao"/></g><path fill="#333" d="M711 13c-250 0-386-99-385-349l2-556H161v-190h181l88-282h176v282h385v190H606v530c-10 130 45 186 174 184 91-2 176-11 255-27v186C933-1 833 13 711 13" id="aw"/><g id="s"><use transform="matrix(0.010850694444444444,0,0,0.010850694444444444,0,0)" xlink:href="#at"/><use transform="matrix(0.010850694444444444,0,0,0.010850694444444444,13.335503472222221,0)" xlink:href="#av"/><use transform="matrix(0.010850694444444444,0,0,0.010850694444444444,26.671006944444443,0)" xlink:href="#at"/><use transform="matrix(0.010850694444444444,0,0,0.010850694444444444,40.006510416666664,0)" xlink:href="#aw"/><use transform="matrix(0.010850694444444444,0,0,0.010850694444444444,53.342013888888886,0)" xlink:href="#as"/><use transform="matrix(0.010850694444444444,0,0,0.010850694444444444,66.67751736111111,0)" xlink:href="#au"/><use transform="matrix(0.010850694444444444,0,0,0.010850694444444444,80.01302083333334,0)" xlink:href="#an"/></g><path fill="#333" d="M844-1321c-130 0-195 53-191 182v57h443v190H653V0H373v-892H117v-190h256v-83c5-247 162-348 422-349 120-1 232 13 327 28v184c-84-10-183-19-278-19" id="ax"/><g id="t"><use transform="matrix(0.010850694444444444,0,0,0.010850694444444444,0,0)" xlink:href="#ap"/><use transform="matrix(0.010850694444444444,0,0,0.010850694444444444,13.335503472222221,0)" xlink:href="#an"/><use transform="matrix(0.010850694444444444,0,0,0.010850694444444444,26.671006944444443,0)" xlink:href="#ax"/><use transform="matrix(0.010850694444444444,0,0,0.010850694444444444,40.006510416666664,0)" xlink:href="#as"/></g><path fill="#333" d="M611-1370c266 0 451 106 451 368 0 147-77 243-154 327-132 144-316 255-451 395-42 44-75 87-96 134h723V0H144v-117c124-264 387-411 582-603 73-72 151-147 151-271 0-161-104-231-266-231-163 0-249 90-268 238l-184-17c35-233 185-369 452-369" id="ay"/><g id="u"><use transform="matrix(0.00868055555555555,0,0,0.00868055555555555,0,0)" xlink:href="#ay"/><use transform="matrix(0.00868055555555555,0,0,0.00868055555555555,10.668402777777771,0)" xlink:href="#I"/></g><path fill="#333" d="M614-1226c-167 1-283 53-283 213 0 183 186 193 334 234 230 63 463 120 463 409 0 286-219 387-518 390C309 23 131-98 79-338l185-37c34 165 149 248 351 246 184-2 324-58 324-238 0-203-207-221-372-266-210-57-422-111-422-377 0-267 201-356 470-360 279-5 430 101 480 324l-188 33c-28-141-121-215-293-213" id="az"/><path fill="#333" d="M736-142h380V0H134v-142h422v-1200H267v-142h469v1342" id="aA"/><path fill="#333" d="M709-1193V0H519v-1193H76v-156h1076v156H709" id="aB"/><path fill="#333" d="M698-1104c312 3 392 244 392 558 0 315-82 566-392 566-169 0-277-65-331-184h-5c8 188 2 394 4 589H185V-858c0-76-1-156-6-224h175c6 52 9 120 10 178h4c58-122 150-202 330-200zm-49 991c225 0 255-203 255-433 0-225-32-419-253-419-236 0-285 192-285 441 0 237 53 411 283 411" id="aC"/><g id="v"><use transform="matrix(0.00868055555555555,0,0,0.00868055555555555,0,0)" xlink:href="#az"/><use transform="matrix(0.00868055555555555,0,0,0.00868055555555555,10.668402777777771,0)" xlink:href="#aa"/><use transform="matrix(0.00868055555555555,0,0,0.00868055555555555,21.336805555555543,0)" xlink:href="#aA"/><use transform="matrix(0.00868055555555555,0,0,0.00868055555555555,32.005208333333314,0)" xlink:href="#aa"/><use transform="matrix(0.00868055555555555,0,0,0.00868055555555555,42.673611111111086,0)" xlink:href="#ac"/><use transform="matrix(0.00868055555555555,0,0,0.00868055555555555,53.34201388888886,0)" xlink:href="#L"/><use transform="matrix(0.00868055555555555,0,0,0.00868055555555555,64.01041666666663,0)" xlink:href="#N"/><use transform="matrix(0.00868055555555555,0,0,0.00868055555555555,74.6788194444444,0)" xlink:href="#O"/><use transform="matrix(0.00868055555555555,0,0,0.00868055555555555,85.34722222222217,0)" xlink:href="#M"/><use transform="matrix(0.00868055555555555,0,0,0.00868055555555555,96.01562499999994,0)" xlink:href="#aB"/><use transform="matrix(0.00868055555555555,0,0,0.00868055555555555,106.68402777777771,0)" xlink:href="#L"/><use transform="matrix(0.00868055555555555,0,0,0.00868055555555555,117.35243055555549,0)" xlink:href="#aC"/><use transform="matrix(0.00868055555555555,0,0,0.00868055555555555,128.02083333333326,0)" xlink:href="#N"/><use transform="matrix(0.00868055555555555,0,0,0.00868055555555555,138.68923611111103,0)" xlink:href="#J"/><use transform="matrix(0.00868055555555555,0,0,0.00868055555555555,149.3576388888888,0)" xlink:href="#N"/><use transform="matrix(0.00868055555555555,0,0,0.00868055555555555,160.02604166666657,0)" xlink:href="#O"/><use transform="matrix(0.00868055555555555,0,0,0.00868055555555555,170.69444444444434,0)" xlink:href="#P"/><use transform="matrix(0.00868055555555555,0,0,0.00868055555555555,181.36284722222211,0)" xlink:href="#M"/><use transform="matrix(0.00868055555555555,0,0,0.00868055555555555,192.0312499999999,0)" xlink:href="#ad"/><use transform="matrix(0.00868055555555555,0,0,0.00868055555555555,202.69965277777766,0)" xlink:href="#P"/><use transform="matrix(0.00868055555555555,0,0,0.00868055555555555,213.36805555555543,0)" xlink:href="#L"/><use transform="matrix(0.00868055555555555,0,0,0.00868055555555555,224.0364583333332,0)" xlink:href="#aC"/><use transform="matrix(0.00868055555555555,0,0,0.00868055555555555,234.70486111111097,0)" xlink:href="#N"/><use transform="matrix(0.00868055555555555,0,0,0.00868055555555555,245.37326388888874,0)" xlink:href="#ae"/></g><path d="M496-1349c439 0 656 222 653 664C1146-265 969 0 556 0H135v-1349h361zm36 1121c245-7 319-187 320-457 1-273-91-439-361-436h-61v893h102" id="aD"/><path d="M794-190h353V0H118v-190h395v-702H223v-190h571v892zM513-1277v-207h281v207H513" id="aE"/><path d="M775-193C708-75 621 20 439 20 226 20 106-93 106-306c0-251 170-341 417-346l223-4c4-143-12-264-148-264-103 0-141 58-150 153l-293-14c37-219 194-321 455-321 263 0 418 130 417 390v392c1 84 5 161 89 160 21 0 42-2 62-6v152c-57 15-108 27-180 26-145 0-202-73-217-205h-6zm-256 17c168 0 234-139 227-325-166 4-347-25-347 173 0 94 33 152 120 152" id="aF"/><path d="M1108-33c-3 314-178 467-492 467-243 0-400-94-447-291l281-33c17 79 82 141 174 141 176 0 212-155 205-347-2-40 5-80 0-115C773-85 665-12 501-12c-288 0-377-242-377-538 0-242 65-426 223-510 50-26 108-39 175-39 160 0 253 78 307 191h5c1-58 5-125 14-174h266c-12 335-3 703-6 1049zM811-384c25-82 27-259 1-342-30-99-77-180-190-180-172 0-205 171-205 356 0 116 18 202 54 258 48 76 129 107 221 70 62-25 96-86 119-162" id="aG"/><path d="M875-1102c70 0 148 7 206 17v237c-110-17-267-37-359 15-123 69-192 207-192 395V0H250c-10-367 32-789-52-1082h271c19 69 36 149 46 228h4c52-151 151-250 356-248" id="aH"/><path d="M934-1102c199 0 220 177 220 381V0H926c-2-260 10-533-4-785-4-72-14-138-83-138-34 0-61 27-81 81s-29 134-29 241V0H501c-2-260 9-533-5-785-4-72-13-138-82-138-46 0-65 47-80 93-21 67-30 155-30 248V0H75c-3-360 6-732-6-1082h209c6 50 3 123 8 175 36-100 83-195 216-195 135 0 166 79 196 196 42-105 93-196 236-196" id="aI"/><g id="w"><use transform="matrix(0.013423539518900343,0,0,0.013423539518900343,0,0)" xlink:href="#aD"/><use transform="matrix(0.013423539518900343,0,0,0.013423539518900343,16.497530068728523,0)" xlink:href="#aE"/><use transform="matrix(0.013423539518900343,0,0,0.013423539518900343,32.995060137457045,0)" xlink:href="#aF"/><use transform="matrix(0.013423539518900343,0,0,0.013423539518900343,49.49259020618557,0)" xlink:href="#aG"/><use transform="matrix(0.013423539518900343,0,0,0.013423539518900343,65.99012027491409,0)" xlink:href="#aH"/><use transform="matrix(0.013423539518900343,0,0,0.013423539518900343,82.48765034364261,0)" xlink:href="#aF"/><use transform="matrix(0.013423539518900343,0,0,0.013423539518900343,98.98518041237114,0)" xlink:href="#aI"/><use transform="matrix(0.013423539518900343,0,0,0.013423539518900343,115.48271048109964,0)" xlink:href="#aF"/></g><path d="M609-1161c-125 0-218 36-218 153 0 149 166 161 290 196 235 67 484 129 484 421 0 300-239 408-554 411C302 23 93-114 38-367l285-37c32 128 131 205 296 203 143-2 259-31 259-173 0-164-197-172-333-212-218-64-441-131-441-405 0-276 231-379 511-379 299 0 463 114 513 363l-286 29c-28-115-96-183-233-183" id="aJ"/><path d="M1113-274C1038-96 884 20 626 20c-352 0-526-209-526-566 0-358 185-556 530-556 358 0 496 251 499 615H395c5 180 68 319 245 319 102 0 186-45 208-129zM857-663c-6-177-128-307-315-247-94 30-141 121-145 247h460" id="aK"/><path d="M800 425c-1-198 1-404 0-596C746-55 645 20 483 20 183 20 97-237 97-543c0-242 74-429 227-518 49-28 105-42 168-42 163 0 248 85 306 197h4c1-59 6-126 15-176h272c-4 67-9 153-8 236V425H800zm-66-671c93-114 91-467-2-586-35-45-76-79-141-79-64 0-113 31-149 92-69 115-66 440 4 561 39 68 130 111 220 70 25-11 46-31 68-58" id="aL"/><path d="M471 20c-247 0-336-169-336-415v-687h281v607c4 148 31 285 172 285 152 0 207-150 207-312v-580h281c4 359-9 736 8 1082H816c-7-63-11-146-12-215h-5C736-76 644 20 471 20" id="aM"/><path d="M768-1103c247 0 336 167 336 416V0H824v-619c-3-164-24-273-171-273-164 0-229 142-229 312V0H143c-4-359 9-736-8-1082h268c7 63 12 146 13 215h4c67-145 160-236 348-236" id="aN"/><path d="M1109-360C1066-122 902 20 624 20c-347 0-514-209-514-555 0-353 168-567 518-567 270 0 425 136 473 361l-283 14c-16-106-75-183-196-182-75 0-130 31-165 93s-52 152-52 270c0 249 74 374 221 374 120 0 188-82 201-201" id="aO"/><path d="M794-190h353V0H118v-190h395v-1104H223v-190h571v1294" id="aP"/><g id="x"><use transform="matrix(0.013423539518900343,0,0,0.013423539518900343,0,0)" xlink:href="#aJ"/><use transform="matrix(0.013423539518900343,0,0,0.013423539518900343,16.497530068728523,0)" xlink:href="#aK"/><use transform="matrix(0.013423539518900343,0,0,0.013423539518900343,32.995060137457045,0)" xlink:href="#aL"/><use transform="matrix(0.013423539518900343,0,0,0.013423539518900343,49.49259020618557,0)" xlink:href="#aM"/><use transform="matrix(0.013423539518900343,0,0,0.013423539518900343,65.99012027491409,0)" xlink:href="#aK"/><use transform="matrix(0.013423539518900343,0,0,0.013423539518900343,82.48765034364261,0)" xlink:href="#aN"/><use transform="matrix(0.013423539518900343,0,0,0.013423539518900343,98.98518041237114,0)" xlink:href="#aO"/><use transform="matrix(0.013423539518900343,0,0,0.013423539518900343,115.48271048109964,0)" xlink:href="#aE"/><use transform="matrix(0.013423539518900343,0,0,0.013423539518900343,131.98024054982818,0)" xlink:href="#aF"/><use transform="matrix(0.013423539518900343,0,0,0.013423539518900343,148.4777706185567,0)" xlink:href="#aP"/></g><path d="M872-915c-35-112-84-223-220-223-91 0-156 41-204 116-89 137-87 550 2 688 51 79 116 122 209 122 150 0 197-126 240-244l273 52C1094-168 961 20 656 20 239 20 80-262 80-681c0-418 154-689 568-689 289 0 425 167 496 389" id="aQ"/><path d="M802-909c-3-189-2-383-2-575h281v1248c-1 83 4 168 8 236H817c-9-50-14-117-15-176h-4C735-49 651 20 482 20 191 20 97-238 97-539c0-243 66-432 221-519 50-28 108-42 175-42 162 2 253 78 309 191zm-70 658c91-113 93-462 2-584-46-61-145-100-224-53-96 56-119 190-120 349 0 123 17 214 52 275 46 82 130 115 222 74 25-12 46-33 68-61" id="aR"/><path d="M622-916c-112 2-200 14-200 111 0 90 89 101 168 121 234 58 514 77 514 368C1104-4 751 54 434 5 267-21 161-112 121-270l247-37c24 111 113 145 252 141 114-3 226-12 226-124 0-101-103-113-192-134-225-54-490-76-490-351 0-247 201-328 458-328 245 0 413 88 457 292l-249 26c-16-98-92-133-208-131" id="aS"/><path d="M711 13c-250 0-386-99-385-349l2-556H161v-190h181l88-282h176v282h385v190H606v530c-10 130 45 186 174 184 91-2 176-11 255-27v186C933-1 833 13 711 13" id="aT"/><path d="M616-1102c361 0 521 202 521 560 0 354-171 562-527 562C259 20 92-192 92-542c0-351 169-560 524-560zm-9 930c200-2 236-165 236-370 0-199-27-367-223-367-195 0-233 146-233 367 0 129 18 223 55 282s92 88 165 88" id="aU"/><g id="y"><use transform="matrix(0.013423539518900343,0,0,0.013423539518900343,0,0)" xlink:href="#aQ"/><use transform="matrix(0.013423539518900343,0,0,0.013423539518900343,16.497530068728523,0)" xlink:href="#aF"/><use transform="matrix(0.013423539518900343,0,0,0.013423539518900343,32.995060137457045,0)" xlink:href="#aR"/><use transform="matrix(0.013423539518900343,0,0,0.013423539518900343,49.49259020618557,0)" xlink:href="#aF"/><use transform="matrix(0.013423539518900343,0,0,0.013423539518900343,65.99012027491409,0)" xlink:href="#aS"/><use transform="matrix(0.013423539518900343,0,0,0.013423539518900343,82.48765034364261,0)" xlink:href="#aT"/><use transform="matrix(0.013423539518900343,0,0,0.013423539518900343,98.98518041237114,0)" xlink:href="#aH"/><use transform="matrix(0.013423539518900343,0,0,0.013423539518900343,115.48271048109964,0)" xlink:href="#aU"/></g><path d="M1229 0H935l-92-330H387L295 0H0l443-1349h344zM615-1167c-46 213-110 412-166 615h332c-56-204-119-401-166-615" id="aV"/><g id="z"><use transform="matrix(0.013423539518900343,0,0,0.013423539518900343,0,0)" xlink:href="#aV"/><use transform="matrix(0.013423539518900343,0,0,0.013423539518900343,16.497530068728523,0)" xlink:href="#aR"/><use transform="matrix(0.013423539518900343,0,0,0.013423539518900343,32.995060137457045,0)" xlink:href="#aI"/><use transform="matrix(0.013423539518900343,0,0,0.013423539518900343,49.49259020618557,0)" xlink:href="#aE"/><use transform="matrix(0.013423539518900343,0,0,0.013423539518900343,65.99012027491409,0)" xlink:href="#aN"/></g><path d="M390 276c167 0 266-82 266-251v-965H249v-142h587V28c-4 270-165 397-431 397-107 0-208-16-288-43V242c80 18 173 34 273 34zm246-1568v-192h200v192H636" id="aW"/><path d="M615-1102c343 0 484 203 482 560-1 347-147 562-488 562-336 0-475-219-479-562-4-349 156-560 485-560zm-8 989c240 0 301-180 301-429 0-245-55-427-290-427-236 0-299 181-299 427 0 243 61 429 288 429" id="aX"/><path d="M1000-272c3 95 12 159 101 161 21 0 41-3 59-7V-6c-44 10-86 16-139 16-141 2-191-84-197-217h-6C748-76 648 20 446 20c-207 0-318-120-318-322 0-266 194-348 454-354l236-4c12-191-40-305-222-305-140 0-220 47-232 172l-188-17c33-204 181-292 423-292 255 0 401 118 401 364v466zm-683-27c0 109 63 184 175 182 166-3 259-96 306-217 24-65 20-120 20-200-232 7-501-28-501 235" id="aY"/><g id="A"><use transform="matrix(0.007468894675925926,0,0,0.007468894675925926,0,0)" xlink:href="#aW"/><use transform="matrix(0.007468894675925926,0,0,0.007468894675925926,9.179271556712962,0)" xlink:href="#aX"/><use transform="matrix(0.007468894675925926,0,0,0.007468894675925926,18.358543113425924,0)" xlink:href="#aY"/><use transform="matrix(0.007468894675925926,0,0,0.007468894675925926,27.537814670138886,0)" xlink:href="#aX"/></g><path d="M715 0H502L69-1082h202c94 253 197 500 285 758 19 57 36 126 52 183 96-335 234-626 350-941h201" id="aZ"/><path d="M745-142h380V0H143v-142h422v-798H246v-142h499v940zM545-1292v-192h200v192H545" id="ba"/><path d="M631 20c-350 0-501-215-501-562 0-355 162-560 502-560 250 0 399 118 446 323l-192 14c-23-124-109-196-262-196-242 0-305 171-305 415 1 245 61 427 304 427 151 0 248-77 267-215l190 12C1039-107 883 20 631 20" id="bb"/><path d="M682 16c-209 0-323-80-324-285v-671H190v-142h170l58-282h120v282h432v142H538v652c2 114 60 155 182 155 106 0 209-16 297-34v137C921-4 806 16 682 16" id="bc"/><path d="M839-1102c70 0 148 7 206 17v167c-112-18-268-36-363 15-129 69-208 203-208 395V0H294c-10-367 32-789-52-1082h171c21 75 41 161 48 250h5c67-152 152-270 373-270" id="bd"/><g id="B"><use transform="matrix(0.007468894675925926,0,0,0.007468894675925926,0,0)" xlink:href="#aZ"/><use transform="matrix(0.007468894675925926,0,0,0.007468894675925926,9.179271556712962,0)" xlink:href="#ba"/><use transform="matrix(0.007468894675925926,0,0,0.007468894675925926,18.358543113425924,0)" xlink:href="#bb"/><use transform="matrix(0.007468894675925926,0,0,0.007468894675925926,27.537814670138886,0)" xlink:href="#bc"/><use transform="matrix(0.007468894675925926,0,0,0.007468894675925926,36.71708622685185,0)" xlink:href="#aX"/><use transform="matrix(0.007468894675925926,0,0,0.007468894675925926,45.89635778356481,0)" xlink:href="#bd"/></g><path d="M873-819c-18-114-119-146-250-146-163 0-245 50-245 151 0 151 170 148 294 185 182 54 388 94 388 320 0 240-189 325-439 329-245 4-410-69-454-268l159-31c24 133 136 168 295 165 144-2 270-31 270-171 0-164-195-160-331-202-167-52-350-87-350-299 0-218 173-315 413-313 220 2 373 77 412 260" id="be"/><path d="M736-142h380V0H134v-142h422v-1200H267v-142h469v1342" id="bf"/><path d="M865-914c-3-187-2-380-2-570h180v1261c0 76 1 155 6 223H877c-8-49-9-116-10-174h-5C801-44 708 26 530 26c-135 0-234-46-297-139s-95-232-95-419c0-377 131-566 392-566 176 0 271 63 335 184zm-286-51c-222 0-255 197-255 427 0 229 31 425 253 425 237 0 286-195 286-441 0-238-52-411-284-411" id="bg"/><g id="C"><use transform="matrix(0.007468894675925926,0,0,0.007468894675925926,0,0)" xlink:href="#be"/><use transform="matrix(0.007468894675925926,0,0,0.007468894675925926,9.179271556712962,0)" xlink:href="#aY"/><use transform="matrix(0.007468894675925926,0,0,0.007468894675925926,18.358543113425924,0)" xlink:href="#bf"/><use transform="matrix(0.007468894675925926,0,0,0.007468894675925926,27.537814670138886,0)" xlink:href="#aZ"/><use transform="matrix(0.007468894675925926,0,0,0.007468894675925926,36.71708622685185,0)" xlink:href="#aY"/><use transform="matrix(0.007468894675925926,0,0,0.007468894675925926,45.89635778356481,0)" xlink:href="#bg"/><use transform="matrix(0.007468894675925926,0,0,0.007468894675925926,55.07562934027777,0)" xlink:href="#aX"/><use transform="matrix(0.007468894675925926,0,0,0.007468894675925926,64.25490089699073,0)" xlink:href="#bd"/></g><path d="M531 425v-1909h166V425H531" id="bh"/><use transform="matrix(0.007468894675925926,0,0,0.007468894675925926,0,0)" xlink:href="#bh" id="D"/><path d="M614-1226c-167 1-283 53-283 213 0 183 186 193 334 234 230 63 463 120 463 409 0 286-219 387-518 390C309 23 131-98 79-338l185-37c34 165 149 248 351 246 184-2 324-58 324-238 0-203-207-221-372-266-210-57-422-111-422-377 0-267 201-356 470-360 279-5 430 101 480 324l-188 33c-28-141-121-215-293-213" id="bi"/><path d="M617-1102c355 0 481 238 477 599H322c5 222 84 388 301 388 144 0 244-59 284-166l158 45C1002-72 854 20 623 20c-342 0-490-220-490-568 0-346 151-554 484-554zm291 461c-18-192-90-328-289-328-194 0-287 128-295 328h584" id="bj"/><path d="M698-1104c312 3 392 244 392 558 0 315-82 566-392 566-169 0-277-65-331-184h-5c8 188 2 394 4 589H185V-858c0-76-1-156-6-224h175c6 52 9 120 10 178h4c58-122 150-202 330-200zm-49 991c225 0 255-203 255-433 0-225-32-419-253-419-236 0-285 192-285 441 0 237 53 411 283 411" id="bk"/><path d="M904-1102c199 0 220 177 220 381V0H956v-686c-3-114 0-215-60-264-70-33-125-4-158 71-26 56-39 140-39 252V0H531v-686c-3-114-1-215-61-264-78-41-136 24-157 84-24 69-39 159-39 259V0H105c-3-360 6-732-6-1082h149c6 50 3 123 8 175 36-100 83-195 216-195 135 0 166 79 196 196 42-105 93-196 236-196" id="bl"/><path d="M365-904c58-129 161-200 334-200 130 0 228 46 293 138s98 233 98 420c0 189-34 331-102 425S824 20 698 20c-170 0-275-64-336-184 0 55-3 116-9 164H179c5-68 6-147 6-223v-1261h180c-2 193 4 394-4 580h4zm283 791c221 0 256-197 256-427 0-229-34-425-254-425-236 0-285 195-285 441 0 237 53 411 283 411" id="bm"/><g id="E"><use transform="matrix(0.007468894675925926,0,0,0.007468894675925926,0,0)" xlink:href="#bi"/><use transform="matrix(0.007468894675925926,0,0,0.007468894675925926,9.179271556712962,0)" xlink:href="#bj"/><use transform="matrix(0.007468894675925926,0,0,0.007468894675925926,18.358543113425924,0)" xlink:href="#bk"/><use transform="matrix(0.007468894675925926,0,0,0.007468894675925926,27.537814670138886,0)" xlink:href="#bc"/><use transform="matrix(0.007468894675925926,0,0,0.007468894675925926,36.71708622685185,0)" xlink:href="#bj"/><use transform="matrix(0.007468894675925926,0,0,0.007468894675925926,45.89635778356481,0)" xlink:href="#bl"/><use transform="matrix(0.007468894675925926,0,0,0.007468894675925926,55.07562934027777,0)" xlink:href="#bm"/><use transform="matrix(0.007468894675925926,0,0,0.007468894675925926,64.25490089699073,0)" xlink:href="#bj"/><use transform="matrix(0.007468894675925926,0,0,0.007468894675925926,73.4341724537037,0)" xlink:href="#bd"/></g><path d="M148-1120c216-7 379-89 463-229h166v1204h353V0H157v-145h439v-1021c-79 124-254 184-448 194v-148" id="bn"/><path d="M1060-1016c0 191-128 285-295 323v4c154 18 262 91 313 209 14 35 21 72 21 110 0 277-194 390-478 390-292 0-457-129-493-382l186-17c24 161 121 250 307 250 172 1 298-80 291-247-8-208-220-239-446-233v-156c217 9 409-34 409-232 0-152-102-225-264-225-159 0-264 88-278 233l-181-14c33-239 196-367 461-367 264 0 447 102 447 354" id="bo"/><path d="M259 363l169-662h265L382 363H259" id="bp"/><g id="F"><use transform="matrix(0.007468894675925926,0,0,0.007468894675925926,0,0)" xlink:href="#bn"/><use transform="matrix(0.007468894675925926,0,0,0.007468894675925926,9.179271556712962,0)" xlink:href="#bo"/><use transform="matrix(0.007468894675925926,0,0,0.007468894675925926,18.358543113425924,0)" xlink:href="#bp"/></g><path d="M611-1370c266 0 451 106 451 368 0 147-77 243-154 327-132 144-316 255-451 395-42 44-75 87-96 134h723V0H144v-117c124-264 387-411 582-603 73-72 151-147 151-271 0-161-104-231-266-231-163 0-249 90-268 238l-184-17c35-233 185-369 452-369" id="bq"/><path d="M1065-1013c47 164 49 500-1 665C999-130 875 20 611 20c-377 0-484-300-487-695-2-245 41-425 141-551 77-98 191-144 352-144 261 0 386 140 448 357zM741-155c199-92 203-504 159-785-26-168-96-284-283-284-281 0-308 256-311 549-2 181 18 324 80 428 46 77 115 118 227 120 47 0 90-10 128-28zM496-555v-249h235v249H496" id="br"/><g id="G"><use transform="matrix(0.007468894675925926,0,0,0.007468894675925926,0,0)" xlink:href="#bq"/><use transform="matrix(0.007468894675925926,0,0,0.007468894675925926,9.179271556712962,0)" xlink:href="#br"/><use transform="matrix(0.007468894675925926,0,0,0.007468894675925926,18.358543113425924,0)" xlink:href="#bq"/><use transform="matrix(0.007468894675925926,0,0,0.007468894675925926,27.537814670138886,0)" xlink:href="#bo"/></g></defs></g></svg>