<svg xmlns="http://www.w3.org/2000/svg" xmlns:xlink="http://www.w3.org/1999/xlink" xmlns:lucid="lucid" width="1372" height="1010"><g transform="translate(872 671)" lucid:page-tab-id="0_0"><path d="M-586.85-512a8 8 0 0 1 8-8H257.9a8 8 0 0 1 8 8v41.03a8 8 0 0 1-8 8h-836.75a8 8 0 0 1-8-8z" stroke="#000" stroke-width="2" fill="#ffd6f5"/><use xlink:href="#a" transform="matrix(1,0,0,1,-582.8534472146569,-516) translate(188.73478045055364 30.923127147766323)"/><use xlink:href="#b" transform="matrix(1,0,0,1,-582.8534472146569,-516) translate(315.19526155021003 30.923127147766323)"/><use xlink:href="#c" transform="matrix(1,0,0,1,-582.8534472146569,-516) translate(458.60877815960293 30.923127147766323)"/><use xlink:href="#d" transform="matrix(1,0,0,1,-582.8534472146569,-516) translate(577.5854868270333 30.923127147766323)"/><path d="M-398.1-464.83H85.8M-398.08-464.83h-1.03M85.78-464.83h1.03" stroke="#000" stroke-width="2" fill="none"/><path d="M-586.85-456.6a8 8 0 0 1 8-8h837.7a8 8 0 0 1 8 8v8.6a8 8 0 0 1-8 8h-837.7a8 8 0 0 1-8-8z" stroke="#000" stroke-width="2" fill="#ffd6f5"/><use xlink:href="#e" transform="matrix(1,0,0,1,-582.8534472146564,-460.61067861244203) translate(280.86771604938275 14.917037037037037)"/><use xlink:href="#f" transform="matrix(1,0,0,1,-582.8534472146564,-460.61067861244203) translate(313.9672016460906 14.917037037037037)"/><use xlink:href="#g" transform="matrix(1,0,0,1,-582.8534472146564,-460.61067861244203) translate(354.6723456790124 14.917037037037037)"/><use xlink:href="#h" transform="matrix(1,0,0,1,-582.8534472146564,-460.61067861244203) translate(420.871316872428 14.917037037037037)"/><use xlink:href="#i" transform="matrix(1,0,0,1,-582.8534472146564,-460.61067861244203) translate(433.3208024691358 14.917037037037037)"/><use xlink:href="#j" transform="matrix(1,0,0,1,-582.8534472146564,-460.61067861244203) translate(512.2666872427983 14.917037037037037)"/><use xlink:href="#k" transform="matrix(1,0,0,1,-582.8534472146564,-460.61067861244203) translate(537.7605144032922 14.917037037037037)"/><path d="M-639-261.33h435.68M-638.97-261.33H-640M-220.68-251.15l17.22-10.18-17.22-10.18" stroke="#5e5e5e" stroke-width="2" fill="none"/><use xlink:href="#l" transform="matrix(1,0,0,1,-511.4314142973848,-284.07465057192275) translate(0 14.791666666666659)"/><use xlink:href="#m" transform="matrix(1,0,0,1,-511.4314142973848,-284.07465057192275) translate(24.295138888888875 14.791666666666659)"/><path d="M-160-317.5v1.96m0 7.82v3.92m0 7.82v3.9m0 7.84v3.9m0 7.84v3.9m0 7.84v3.9m0 7.84v3.9m0 7.83v3.93m0 7.82v3.92m0 7.82v3.9m0 7.83v3.9m0 7.84v3.9m0 7.84v3.92m0 7.83v3.9m0 7.83v3.92m0 7.82v3.92m0 7.82v3.9m0 7.84v3.9m0 7.84v3.9m0 7.84v3.9m0 7.84v3.9m0 7.84v3.9m0 7.83v3.91m0 7.83v3.9m0 7.84v3.9m0 7.84v3.92m0 7.83v3.9m0 7.84v3.9m0 7.82v3.92m0 7.82v3.92m0 7.82v3.9m0 7.84v3.9m0 7.84v3.9m0 7.84v3.9m0 7.84v3.9m0 7.83v3.9m0 7.83v3.92m0 7.82v3.9m0 7.84v3.92m0 7.83v3.9m0 7.84v3.9m0 7.83v3.9m0 7.84v3.9m0 7.83v3.92m0 7.82V199" stroke="#5e5e5e" stroke-width="2" fill="none"/><path d="M-159-317.47h-2v-1.03h2z" stroke="#5e5e5e" stroke-width=".05" fill="#5e5e5e"/><path d="M-160 198.97V200M-639-140h435.68M-638.97-140H-640M-220.68-129.82l17.22-10.18-17.22-10.18" stroke="#5e5e5e" stroke-width="2" fill="none"/><use xlink:href="#n" transform="matrix(1,0,0,1,-527.4340255050504,-162.7413194444443) translate(0 14.791666666666659)"/><use xlink:href="#o" transform="matrix(1,0,0,1,-527.4340255050504,-162.7413194444443) translate(32.005208333333314 14.791666666666659)"/><path d="M-157.5-138.67H260" stroke="#5e5e5e" stroke-width="2" fill="none"/><path d="M-157.47-137.67h-1.03v-2h1.03z" stroke="#5e5e5e" stroke-width=".05" fill="#5e5e5e"/><path d="M275.26-138.67L261-134.03v-9.27z" stroke="#5e5e5e" stroke-width="2" fill="#5e5e5e"/><use xlink:href="#p" transform="matrix(1,0,0,1,-100.02607790297964,-161.4079857322924) translate(0 14.791666666666668)"/><use xlink:href="#q" transform="matrix(1,0,0,1,-100.02607790297964,-161.4079857322924) translate(32.005208333333336 14.791666666666668)"/><path d="M277.5-104h-2m-8.07 0h-4.03m-8.05 0h-4.03m-8.06 0h-4.02m-8.06 0h-4.03m-8.05 0h-4.03m-8.06 0h-4m-8.07 0h-4.03m-8.05 0h-4.03m-8.06 0h-4.02m-8.06 0h-4.03m-8.05 0h-4.03m-8.06 0h-4m-8.07 0h-4.03m-8.05 0h-4.03m-8.06 0h-4.02m-8.06 0h-4.03m-8.05 0h-4.03M62-104h-4m-8.03 0h-4m-8.04 0h-4m-8.04 0h-4.02m-8.02 0H9.84m-8.02 0H-2.2m-8.02 0h-4m-8.04 0h-4m-8.04 0h-4m-8.03 0h-4.02m-8.02 0h-4.02m-8 0h-4.02m-8.03 0h-4m-8.03 0h-4.02m-8.02 0h-4.02m-8.02 0h-4m-8.04 0h-4m-8.04 0h-4m-8.04 0h-2" stroke="#5e5e5e" stroke-width="2" fill="none"/><path d="M278.5-103h-1.03v-2h1.03z" stroke="#5e5e5e" stroke-width=".05" fill="#5e5e5e"/><path d="M-139.32-114.18L-156.54-104l17.22 10.18" stroke="#5e5e5e" stroke-width="2" fill="none"/><use xlink:href="#r" transform="matrix(1,0,0,1,1.323779603808994,-100.00000171579441) translate(0 14.791666666666668)"/><use xlink:href="#s" transform="matrix(1,0,0,1,1.323779603808994,-100.00000171579441) translate(32.005208333333336 14.791666666666668)"/><use xlink:href="#t" transform="matrix(1,0,0,1,1.323779603808994,-100.00000171579441) translate(96.015625 14.791666666666668)"/><path d="M-157.5-62.67h53a6 6 0 0 1 6 6v49.34a6 6 0 0 1-6 6H-120" stroke="#5e5e5e" stroke-width="2" fill="none"/><path d="M-157.47-61.67h-1.03v-2h1.03z" stroke="#5e5e5e" stroke-width=".05" fill="#5e5e5e"/><path d="M-135.26-1.33L-121-5.97V3.3z" stroke="#5e5e5e" stroke-width="2" fill="#5e5e5e"/><use xlink:href="#u" transform="matrix(1,0,0,1,-90.50005196075406,-22.37852928204847) translate(0 14.791666666666668)"/><use xlink:href="#v" transform="matrix(1,0,0,1,-90.50005196075406,-22.37852928204847) translate(32.005208333333336 14.791666666666668)"/><path d="M-159 82.67h419M-158.97 82.67H-160" stroke="#5e5e5e" stroke-width="2" fill="none"/><path d="M275.26 82.67L261 87.3v-9.27z" stroke="#5e5e5e" stroke-width="2" fill="#5e5e5e"/><use xlink:href="#w" transform="matrix(1,0,0,1,-84.7734166089472,59.92434836538602) translate(0 14.791666666666668)"/><use xlink:href="#x" transform="matrix(1,0,0,1,-84.7734166089472,59.92434836538602) translate(32.005208333333336 14.791666666666668)"/><path d="M-202.5 108h-435.68" stroke="#5e5e5e" stroke-width="2" fill="none"/><path d="M-201.5 109h-1.03v-2h1.03z" stroke="#5e5e5e" stroke-width=".05" fill="#5e5e5e"/><path d="M-620.82 97.82l-17.2 10.18 17.2 10.18" stroke="#5e5e5e" stroke-width="2" fill="none"/><use xlink:href="#y" transform="matrix(1,0,0,1,-538.102388023088,111.99999962118454) translate(0 14.791666666666668)"/><use xlink:href="#z" transform="matrix(1,0,0,1,-538.102388023088,111.99999962118454) translate(32.005208333333336 14.791666666666668)"/><path d="M240-394a6 6 0 0 1 6-6h148a6 6 0 0 1 6 6v68a6 6 0 0 1-6 6H246a6 6 0 0 1-6-6z" stroke="#5e5e5e" stroke-width="3" fill="#fff"/><g><use xlink:href="#A" transform="matrix(1,0,0,1,240,-400) translate(26.662986111111103 36.00043402777778)"/><use xlink:href="#B" transform="matrix(1,0,0,1,240,-400) translate(106.67600694444445 36.00043402777778)"/><use xlink:href="#C" transform="matrix(1,0,0,1,240,-400) translate(46.66624131944444 59.43793402777778)"/></g><path d="M320-317.5v2m0 8v4m0 8.02v4m0 8v4.02m0 8v4m0 8.02v4m0 8v4m0 8.02v4m0 8v4m0 8.02v4m0 8v4.02m0 8v4m0 8.02v4m0 8v4m0 8.02v4m0 8v4.02m0 8v4m0 8.02v4m0 8v4m0 8.02v4m0 8v4m0 8.02v4m0 8v4.02m0 8v4m0 8.02v4m0 8v4m0 8.02v4m0 8v4.02m0 8v4m0 8.02v4m0 8v4m0 8.02v4m0 8v4m0 8.02v4m0 8v4.02m0 8v4m0 8.02v4m0 8v4m0 8.02v4m0 8v4.02m0 8v4m0 8V177m0 8v4m0 8.02v2M320-317.47v-1.03M320 198.97V200" stroke="#5e5e5e" stroke-width="2" fill="none"/><path d="M280-154a6 6 0 0 1 6-6h28a6 6 0 0 1 6 6v68a6 6 0 0 1-6 6h-28a6 6 0 0 1-6-6zM280 66a6 6 0 0 1 6-6h28a6 6 0 0 1 6 6v70.67a6 6 0 0 1-6 6h-28a6 6 0 0 1-6-6zM-720-394a6 6 0 0 1 6-6h148a6 6 0 0 1 6 6v68a6 6 0 0 1-6 6h-148a6 6 0 0 1-6-6z" stroke="#5e5e5e" stroke-width="3" fill="#fff"/><g><use xlink:href="#D" transform="matrix(1,0,0,1,-720,-400) translate(33.33073784722221 46.00043402777778)"/></g><path d="M-640-317.5v2m0 8v4m0 8.02v4m0 8v4.02m0 8v4m0 8.02v4m0 8v4m0 8.02v4m0 8v4m0 8.02v4m0 8v4.02m0 8v4m0 8.02v4m0 8v4m0 8.02v4m0 8v4.02m0 8v4m0 8.02v4m0 8v4m0 8.02v4m0 8v4m0 8.02v4m0 8v4.02m0 8v4m0 8.02v4m0 8v4m0 8.02v4m0 8v4.02m0 8v4m0 8.02v4m0 8v4m0 8.02v4m0 8v4m0 8.02v4m0 8v4.02m0 8v4m0 8.02v4m0 8v4m0 8.02v4m0 8v4.02m0 8v4m0 8V177m0 8v4m0 8.02v2" stroke="#5e5e5e" stroke-width="2" fill="none"/><path d="M-639-317.47h-2v-1.03h2z" stroke="#5e5e5e" stroke-width=".05" fill="#5e5e5e"/><path d="M-640 198.97V200" stroke="#5e5e5e" stroke-width="2" fill="none"/><path d="M-200-274a6 6 0 0 1 6-6h28a6 6 0 0 1 6 6v68a6 6 0 0 1-6 6h-28a6 6 0 0 1-6-6zM-240-394a6 6 0 0 1 6-6h148a6 6 0 0 1 6 6v68a6 6 0 0 1-6 6h-148a6 6 0 0 1-6-6z" stroke="#5e5e5e" stroke-width="3" fill="#fff"/><g><use xlink:href="#E" transform="matrix(1,0,0,1,-239.99999999999983,-400) translate(33.33073784722221 36.00043402777778)"/><use xlink:href="#F" transform="matrix(1,0,0,1,-239.99999999999983,-400) translate(53.33399305555556 59.43793402777778)"/></g><path d="M-200-154a6 6 0 0 1 6-6h28a6 6 0 0 1 6 6v308a6 6 0 0 1-6 6h-28a6 6 0 0 1-6-6z" stroke="#5e5e5e" stroke-width="3" fill="#fff"/><path d="M-180-34a6 6 0 0 1 6-6h28a6 6 0 0 1 6 6v68a6 6 0 0 1-6 6h-28a6 6 0 0 1-6-6z" stroke="#5e5e5e" stroke-width="3" fill="#fff"/><defs><path d="M30-248c118-7 216 8 213 122C240-48 200 0 122 0H30v-248zM63-27c89 8 146-16 146-99s-60-101-146-95v194" id="G"/><path d="M24-231v-30h32v30H24zM24 0v-190h32V0H24" id="H"/><path d="M141-36C126-15 110 5 73 4 37 3 15-17 15-53c-1-64 63-63 125-63 3-35-9-54-41-54-24 1-41 7-42 31l-33-3c5-37 33-52 76-52 45 0 72 20 72 64v82c-1 20 7 32 28 27v20c-31 9-61-2-59-35zM48-53c0 20 12 33 32 33 41-3 63-29 60-74-43 2-92-5-92 41" id="I"/><path d="M177-190C167-65 218 103 67 71c-23-6-38-20-44-43l32-5c15 47 100 32 89-28v-30C133-14 115 1 83 1 29 1 15-40 15-95c0-56 16-97 71-98 29-1 48 16 59 35 1-10 0-23 2-32h30zM94-22c36 0 50-32 50-73 0-42-14-75-50-75-39 0-46 34-46 75s6 73 46 73" id="J"/><path d="M114-163C36-179 61-72 57 0H25l-1-190h30c1 12-1 29 2 39 6-27 23-49 58-41v29" id="K"/><path d="M210-169c-67 3-38 105-44 169h-31v-121c0-29-5-50-35-48C34-165 62-65 56 0H25l-1-190h30c1 10-1 24 2 32 10-44 99-50 107 0 11-21 27-35 58-36 85-2 47 119 55 194h-31v-121c0-29-5-49-35-48" id="L"/><g id="a"><use transform="matrix(0.07636502481863307,0,0,0.07636502481863307,0,0)" xlink:href="#G"/><use transform="matrix(0.07636502481863307,0,0,0.07636502481863307,19.778541428025964,0)" xlink:href="#H"/><use transform="matrix(0.07636502481863307,0,0,0.07636502481863307,25.81137838869797,0)" xlink:href="#I"/><use transform="matrix(0.07636502481863307,0,0,0.07636502481863307,41.08438335242459,0)" xlink:href="#J"/><use transform="matrix(0.07636502481863307,0,0,0.07636502481863307,56.3573883161512,0)" xlink:href="#K"/><use transform="matrix(0.07636502481863307,0,0,0.07636502481863307,65.44482626956854,0)" xlink:href="#I"/><use transform="matrix(0.07636502481863307,0,0,0.07636502481863307,80.71783123329516,0)" xlink:href="#L"/><use transform="matrix(0.07636502481863307,0,0,0.07636502481863307,103.55097365406644,0)" xlink:href="#I"/></g><path d="M185-189c-5-48-123-54-124 2 14 75 158 14 163 119 3 78-121 87-175 55-17-10-28-26-33-46l33-7c5 56 141 63 141-1 0-78-155-14-162-118-5-82 145-84 179-34 5 7 8 16 11 25" id="M"/><path d="M100-194c63 0 86 42 84 106H49c0 40 14 67 53 68 26 1 43-12 49-29l28 8c-11 28-37 45-77 45C44 4 14-33 15-96c1-61 26-98 85-98zm52 81c6-60-76-77-97-28-3 7-6 17-6 28h103" id="N"/><path d="M145-31C134-9 116 4 85 4 32 4 16-35 15-94c0-59 17-99 70-100 32-1 48 14 60 33 0-11-1-24 2-32h30l-1 268h-32zM93-21c41 0 51-33 51-76s-8-73-50-73c-40 0-46 35-46 75s5 74 45 74" id="O"/><path d="M84 4C-5 8 30-112 23-190h32v120c0 31 7 50 39 49 72-2 45-101 50-169h31l1 190h-30c-1-10 1-25-2-33-11 22-28 36-60 37" id="P"/><path d="M117-194c89-4 53 116 60 194h-32v-121c0-31-8-49-39-48C34-167 62-67 57 0H25l-1-190h30c1 10-1 24 2 32 11-22 29-35 61-36" id="Q"/><path d="M96-169c-40 0-48 33-48 73s9 75 48 75c24 0 41-14 43-38l32 2c-6 37-31 61-74 61-59 0-76-41-82-99-10-93 101-131 147-64 4 7 5 14 7 22l-32 3c-4-21-16-35-41-35" id="R"/><path d="M24 0v-261h32V0H24" id="S"/><g id="b"><use transform="matrix(0.07636502481863307,0,0,0.07636502481863307,0,0)" xlink:href="#M"/><use transform="matrix(0.07636502481863307,0,0,0.07636502481863307,18.327605956471935,0)" xlink:href="#N"/><use transform="matrix(0.07636502481863307,0,0,0.07636502481863307,33.60061092019855,0)" xlink:href="#O"/><use transform="matrix(0.07636502481863307,0,0,0.07636502481863307,48.87361588392516,0)" xlink:href="#P"/><use transform="matrix(0.07636502481863307,0,0,0.07636502481863307,64.14662084765177,0)" xlink:href="#N"/><use transform="matrix(0.07636502481863307,0,0,0.07636502481863307,79.41962581137837,0)" xlink:href="#Q"/><use transform="matrix(0.07636502481863307,0,0,0.07636502481863307,94.69263077510499,0)" xlink:href="#R"/><use transform="matrix(0.07636502481863307,0,0,0.07636502481863307,108.43833524245896,0)" xlink:href="#H"/><use transform="matrix(0.07636502481863307,0,0,0.07636502481863307,114.47117220313096,0)" xlink:href="#I"/><use transform="matrix(0.07636502481863307,0,0,0.07636502481863307,129.74417716685758,0)" xlink:href="#S"/></g><path d="M212-179c-10-28-35-45-73-45-59 0-87 40-87 99 0 60 29 101 89 101 43 0 62-24 78-52l27 14C228-24 195 4 139 4 59 4 22-46 18-125c-6-104 99-153 187-111 19 9 31 26 39 46" id="T"/><path d="M85-194c31 0 48 13 60 33l-1-100h32l1 261h-30c-2-10 0-23-3-31C134-8 116 4 85 4 32 4 16-35 15-94c0-66 23-100 70-100zm9 24c-40 0-46 34-46 75 0 40 6 74 45 74 42 0 51-32 51-76 0-42-9-74-50-73" id="U"/><path d="M135-143c-3-34-86-38-87 0 15 53 115 12 119 90S17 21 10-45l28-5c4 36 97 45 98 0-10-56-113-15-118-90-4-57 82-63 122-42 12 7 21 19 24 35" id="V"/><path d="M59-47c-2 24 18 29 38 22v24C64 9 27 4 27-40v-127H5v-23h24l9-43h21v43h35v23H59v120" id="W"/><path d="M100-194c62-1 85 37 85 99 1 63-27 99-86 99S16-35 15-95c0-66 28-99 85-99zM99-20c44 1 53-31 53-75 0-43-8-75-51-75s-53 32-53 75 10 74 51 75" id="X"/><g id="c"><use transform="matrix(0.07636502481863307,0,0,0.07636502481863307,0,0)" xlink:href="#T"/><use transform="matrix(0.07636502481863307,0,0,0.07636502481863307,19.778541428025964,0)" xlink:href="#I"/><use transform="matrix(0.07636502481863307,0,0,0.07636502481863307,35.05154639175258,0)" xlink:href="#U"/><use transform="matrix(0.07636502481863307,0,0,0.07636502481863307,50.324551355479194,0)" xlink:href="#I"/><use transform="matrix(0.07636502481863307,0,0,0.07636502481863307,65.59755631920581,0)" xlink:href="#V"/><use transform="matrix(0.07636502481863307,0,0,0.07636502481863307,79.34326078655978,0)" xlink:href="#W"/><use transform="matrix(0.07636502481863307,0,0,0.07636502481863307,86.97976326842307,0)" xlink:href="#K"/><use transform="matrix(0.07636502481863307,0,0,0.07636502481863307,96.06720122184039,0)" xlink:href="#X"/></g><g id="d"><use transform="matrix(0.07636502481863307,0,0,0.07636502481863307,0,0)" xlink:href="#T"/><use transform="matrix(0.07636502481863307,0,0,0.07636502481863307,19.778541428025964,0)" xlink:href="#S"/><use transform="matrix(0.07636502481863307,0,0,0.07636502481863307,25.81137838869797,0)" xlink:href="#H"/><use transform="matrix(0.07636502481863307,0,0,0.07636502481863307,31.84421534936999,0)" xlink:href="#N"/><use transform="matrix(0.07636502481863307,0,0,0.07636502481863307,47.1172203130966,0)" xlink:href="#Q"/><use transform="matrix(0.07636502481863307,0,0,0.07636502481863307,62.390225276823216,0)" xlink:href="#W"/><use transform="matrix(0.07636502481863307,0,0,0.07636502481863307,70.02672775868652,0)" xlink:href="#N"/></g><path d="M24-231v-30h32v30H24zM-9 49c24 4 33-6 33-30v-209h32V24c2 40-23 58-65 49V49" id="Y"/><g id="e"><use transform="matrix(0.04248971193415638,0,0,0.04248971193415638,0,0)" xlink:href="#Y"/><use transform="matrix(0.04248971193415638,0,0,0.04248971193415638,3.356687242798354,0)" xlink:href="#X"/><use transform="matrix(0.04248971193415638,0,0,0.04248971193415638,11.854629629629626,0)" xlink:href="#I"/><use transform="matrix(0.04248971193415638,0,0,0.04248971193415638,20.352572016460904,0)" xlink:href="#X"/></g><path d="M108 0H70L1-190h34L89-25l56-165h34" id="Z"/><g id="f"><use transform="matrix(0.04248971193415638,0,0,0.04248971193415638,0,0)" xlink:href="#Z"/><use transform="matrix(0.04248971193415638,0,0,0.04248971193415638,7.648148148148148,0)" xlink:href="#H"/><use transform="matrix(0.04248971193415638,0,0,0.04248971193415638,11.004835390946502,0)" xlink:href="#R"/><use transform="matrix(0.04248971193415638,0,0,0.04248971193415638,18.65298353909465,0)" xlink:href="#W"/><use transform="matrix(0.04248971193415638,0,0,0.04248971193415638,22.901954732510287,0)" xlink:href="#X"/><use transform="matrix(0.04248971193415638,0,0,0.04248971193415638,31.399897119341556,0)" xlink:href="#K"/></g><g id="g"><use transform="matrix(0.04248971193415638,0,0,0.04248971193415638,0,0)" xlink:href="#V"/><use transform="matrix(0.04248971193415638,0,0,0.04248971193415638,7.648148148148148,0)" xlink:href="#I"/><use transform="matrix(0.04248971193415638,0,0,0.04248971193415638,16.14609053497942,0)" xlink:href="#S"/><use transform="matrix(0.04248971193415638,0,0,0.04248971193415638,19.502777777777776,0)" xlink:href="#Z"/><use transform="matrix(0.04248971193415638,0,0,0.04248971193415638,27.150925925925925,0)" xlink:href="#I"/><use transform="matrix(0.04248971193415638,0,0,0.04248971193415638,35.6488683127572,0)" xlink:href="#U"/><use transform="matrix(0.04248971193415638,0,0,0.04248971193415638,44.14681069958848,0)" xlink:href="#X"/><use transform="matrix(0.04248971193415638,0,0,0.04248971193415638,52.64475308641975,0)" xlink:href="#K"/></g><path d="M32 76v-337h29V76H32" id="aa"/><use transform="matrix(0.04248971193415638,0,0,0.04248971193415638,0,0)" xlink:href="#aa" id="h"/><path d="M115-194c55 1 70 41 70 98S169 2 115 4C84 4 66-9 55-30l1 105H24l-1-265h31l2 30c10-21 28-34 59-34zm-8 174c40 0 45-34 45-75s-6-73-45-74c-42 0-51 32-51 76 0 43 10 73 51 73" id="ab"/><path d="M115-194c53 0 69 39 70 98 0 66-23 100-70 100C84 3 66-7 56-30L54 0H23l1-261h32v101c10-23 28-34 59-34zm-8 174c40 0 45-34 45-75 0-40-5-75-45-74-42 0-51 32-51 76 0 43 10 73 51 73" id="ac"/><g id="i"><use transform="matrix(0.04248971193415638,0,0,0.04248971193415638,0,0)" xlink:href="#M"/><use transform="matrix(0.04248971193415638,0,0,0.04248971193415638,10.19753086419753,0)" xlink:href="#N"/><use transform="matrix(0.04248971193415638,0,0,0.04248971193415638,18.695473251028805,0)" xlink:href="#ab"/><use transform="matrix(0.04248971193415638,0,0,0.04248971193415638,27.193415637860078,0)" xlink:href="#W"/><use transform="matrix(0.04248971193415638,0,0,0.04248971193415638,31.442386831275712,0)" xlink:href="#N"/><use transform="matrix(0.04248971193415638,0,0,0.04248971193415638,39.94032921810699,0)" xlink:href="#L"/><use transform="matrix(0.04248971193415638,0,0,0.04248971193415638,52.64475308641975,0)" xlink:href="#ac"/><use transform="matrix(0.04248971193415638,0,0,0.04248971193415638,61.142695473251024,0)" xlink:href="#N"/><use transform="matrix(0.04248971193415638,0,0,0.04248971193415638,69.6406378600823,0)" xlink:href="#K"/></g><path d="M27 0v-27h64v-190l-56 39v-29l58-41h29v221h61V0H27" id="ad"/><path d="M126-127c33 6 58 20 58 59 0 88-139 92-164 29-3-8-5-16-6-25l32-3c6 27 21 44 54 44 32 0 52-15 52-46 0-38-36-46-79-43v-28c39 1 72-4 72-42 0-27-17-43-46-43-28 0-47 15-49 41l-32-3c6-42 35-63 81-64 48-1 79 21 79 65 0 36-21 52-52 59" id="ae"/><path d="M68-38c1 34 0 65-14 84H32c9-13 17-26 17-46H33v-38h35" id="af"/><g id="j"><use transform="matrix(0.04248971193415638,0,0,0.04248971193415638,0,0)" xlink:href="#ad"/><use transform="matrix(0.04248971193415638,0,0,0.04248971193415638,8.497942386831275,0)" xlink:href="#ae"/><use transform="matrix(0.04248971193415638,0,0,0.04248971193415638,16.99588477366255,0)" xlink:href="#af"/></g><path d="M101-251c82-7 93 87 43 132L82-64C71-53 59-42 53-27h129V0H18c2-99 128-94 128-182 0-28-16-43-45-43s-46 15-49 41l-32-3c6-41 34-60 81-64" id="ag"/><path d="M101-251c68 0 85 55 85 127S166 4 100 4C33 4 14-52 14-124c0-73 17-127 87-127zm-1 229c47 0 54-49 54-102s-4-102-53-102c-51 0-55 48-55 102 0 53 5 102 54 102" id="ah"/><g id="k"><use transform="matrix(0.04248971193415638,0,0,0.04248971193415638,0,0)" xlink:href="#ag"/><use transform="matrix(0.04248971193415638,0,0,0.04248971193415638,8.497942386831275,0)" xlink:href="#ah"/><use transform="matrix(0.04248971193415638,0,0,0.04248971193415638,16.99588477366255,0)" xlink:href="#ag"/><use transform="matrix(0.04248971193415638,0,0,0.04248971193415638,25.493827160493822,0)" xlink:href="#ae"/></g><path fill="#333" d="M148-1120c216-7 379-89 463-229h166v1204h353V0H157v-145h439v-1021c-79 124-254 184-448 194v-148" id="ai"/><path fill="#333" d="M496 0v-299h235V0H496" id="aj"/><g id="l"><use transform="matrix(0.00868055555555555,0,0,0.00868055555555555,0,0)" xlink:href="#ai"/><use transform="matrix(0.00868055555555555,0,0,0.00868055555555555,10.668402777777771,0)" xlink:href="#aj"/></g><path fill="#333" d="M650-1214c-281 0-336 244-336 533 0 295 60 546 347 546 188 0 263-142 322-282l159 65C1058-155 935 20 659 20c-401 0-546-295-546-701 0-407 135-689 536-689 264 0 391 146 466 335l-168 65c-47-129-127-244-297-244" id="ak"/><path fill="#333" d="M839-1102c70 0 148 7 206 17v167c-112-18-268-36-363 15-129 69-208 203-208 395V0H294c-10-367 32-789-52-1082h171c21 75 41 161 48 250h5c67-152 152-270 373-270" id="al"/><path fill="#333" d="M745-142h380V0H143v-142h422v-798H246v-142h499v940zM545-1292v-192h200v192H545" id="am"/><path fill="#333" d="M1000-272c3 95 12 159 101 161 21 0 41-3 59-7V-6c-44 10-86 16-139 16-141 2-191-84-197-217h-6C748-76 648 20 446 20c-207 0-318-120-318-322 0-266 194-348 454-354l236-4c12-191-40-305-222-305-140 0-220 47-232 172l-188-17c33-204 181-292 423-292 255 0 401 118 401 364v466zm-683-27c0 109 63 184 175 182 166-3 259-96 306-217 24-65 20-120 20-200-232 7-501-28-501 235" id="an"/><path fill="#333" d="M615-1102c343 0 484 203 482 560-1 347-147 562-488 562-336 0-475-219-479-562-4-349 156-560 485-560zm-8 989c240 0 301-180 301-429 0-245-55-427-290-427-236 0-299 181-299 427 0 243 61 429 288 429" id="ao"/><path fill="#333" d="M706-1102c241 0 344 136 343 381V0H868v-695c1-168-57-273-220-268-190 6-283 138-283 336V0H185c-3-360 6-732-6-1082h170c4 54 7 126 8 185h3c63-121 164-204 346-205" id="ap"/><path fill="#333" d="M682 16c-209 0-323-80-324-285v-671H190v-142h170l58-282h120v282h432v142H538v652c2 114 60 155 182 155 106 0 209-16 297-34v137C921-4 806 16 682 16" id="aq"/><path fill="#333" d="M736-142h380V0H134v-142h422v-1200H267v-142h469v1342" id="ar"/><path fill="#333" d="M617-1102c355 0 481 238 477 599H322c5 222 84 388 301 388 144 0 244-59 284-166l158 45C1002-72 854 20 623 20c-342 0-490-220-490-568 0-346 151-554 484-554zm291 461c-18-192-90-328-289-328-194 0-287 128-295 328h584" id="as"/><g id="m"><use transform="matrix(0.00868055555555555,0,0,0.00868055555555555,0,0)" xlink:href="#ak"/><use transform="matrix(0.00868055555555555,0,0,0.00868055555555555,10.668402777777771,0)" xlink:href="#al"/><use transform="matrix(0.00868055555555555,0,0,0.00868055555555555,21.336805555555543,0)" xlink:href="#am"/><use transform="matrix(0.00868055555555555,0,0,0.00868055555555555,32.005208333333314,0)" xlink:href="#an"/><use transform="matrix(0.00868055555555555,0,0,0.00868055555555555,42.673611111111086,0)" xlink:href="#al"/><use transform="matrix(0.00868055555555555,0,0,0.00868055555555555,53.34201388888886,0)" xlink:href="#ak"/><use transform="matrix(0.00868055555555555,0,0,0.00868055555555555,64.01041666666663,0)" xlink:href="#ao"/><use transform="matrix(0.00868055555555555,0,0,0.00868055555555555,74.6788194444444,0)" xlink:href="#ap"/><use transform="matrix(0.00868055555555555,0,0,0.00868055555555555,85.34722222222217,0)" xlink:href="#aq"/><use transform="matrix(0.00868055555555555,0,0,0.00868055555555555,96.01562499999994,0)" xlink:href="#an"/><use transform="matrix(0.00868055555555555,0,0,0.00868055555555555,106.68402777777771,0)" xlink:href="#ak"/><use transform="matrix(0.00868055555555555,0,0,0.00868055555555555,117.35243055555549,0)" xlink:href="#ar"/><use transform="matrix(0.00868055555555555,0,0,0.00868055555555555,128.02083333333326,0)" xlink:href="#am"/><use transform="matrix(0.00868055555555555,0,0,0.00868055555555555,138.68923611111103,0)" xlink:href="#as"/><use transform="matrix(0.00868055555555555,0,0,0.00868055555555555,149.3576388888888,0)" xlink:href="#ap"/><use transform="matrix(0.00868055555555555,0,0,0.00868055555555555,160.02604166666657,0)" xlink:href="#aq"/><use transform="matrix(0.00868055555555555,0,0,0.00868055555555555,170.69444444444434,0)" xlink:href="#as"/></g><path fill="#333" d="M611-1370c266 0 451 106 451 368 0 147-77 243-154 327-132 144-316 255-451 395-42 44-75 87-96 134h723V0H144v-117c124-264 387-411 582-603 73-72 151-147 151-271 0-161-104-231-266-231-163 0-249 90-268 238l-184-17c35-233 185-369 452-369" id="at"/><g id="n"><use transform="matrix(0.00868055555555555,0,0,0.00868055555555555,0,0)" xlink:href="#at"/><use transform="matrix(0.00868055555555555,0,0,0.00868055555555555,10.668402777777771,0)" xlink:href="#aj"/></g><path fill="#333" d="M162 0v-1349h919v156H353v422h668v154H353v461h769V0H162" id="au"/><path fill="#333" d="M715 0H502L69-1082h202c94 253 197 500 285 758 19 57 36 126 52 183 96-335 234-626 350-941h201" id="av"/><path fill="#333" d="M473-1349c438-1 655 221 652 661C1122-268 945-8 532 0H162v-1349h311zm42 1193c308-4 416-205 418-532 2-330-131-509-459-505H353v1037h162" id="aw"/><path fill="#333" d="M865-914c-3-187-2-380-2-570h180v1261c0 76 1 155 6 223H877c-8-49-9-116-10-174h-5C801-44 708 26 530 26c-135 0-234-46-297-139s-95-232-95-419c0-377 131-566 392-566 176 0 271 63 335 184zm-286-51c-222 0-255 197-255 427 0 229 31 425 253 425 237 0 286-195 286-441 0-238-52-411-284-411" id="ax"/><path fill="#333" d="M873-819c-18-114-119-146-250-146-163 0-245 50-245 151 0 151 170 148 294 185 182 54 388 94 388 320 0 240-189 325-439 329-245 4-410-69-454-268l159-31c24 133 136 168 295 165 144-2 270-31 270-171 0-164-195-160-331-202-167-52-350-87-350-299 0-218 173-315 413-313 220 2 373 77 412 260" id="ay"/><g id="o"><use transform="matrix(0.00868055555555555,0,0,0.00868055555555555,0,0)" xlink:href="#au"/><use transform="matrix(0.00868055555555555,0,0,0.00868055555555555,10.668402777777771,0)" xlink:href="#ap"/><use transform="matrix(0.00868055555555555,0,0,0.00868055555555555,21.336805555555543,0)" xlink:href="#av"/><use transform="matrix(0.00868055555555555,0,0,0.00868055555555555,32.005208333333314,0)" xlink:href="#am"/><use transform="matrix(0.00868055555555555,0,0,0.00868055555555555,42.673611111111086,0)" xlink:href="#an"/><use transform="matrix(0.00868055555555555,0,0,0.00868055555555555,53.34201388888886,0)" xlink:href="#aw"/><use transform="matrix(0.00868055555555555,0,0,0.00868055555555555,64.01041666666663,0)" xlink:href="#an"/><use transform="matrix(0.00868055555555555,0,0,0.00868055555555555,74.6788194444444,0)" xlink:href="#ax"/><use transform="matrix(0.00868055555555555,0,0,0.00868055555555555,85.34722222222217,0)" xlink:href="#ao"/><use transform="matrix(0.00868055555555555,0,0,0.00868055555555555,96.01562499999994,0)" xlink:href="#ay"/><use transform="matrix(0.00868055555555555,0,0,0.00868055555555555,106.68402777777771,0)" xlink:href="#ak"/><use transform="matrix(0.00868055555555555,0,0,0.00868055555555555,117.35243055555549,0)" xlink:href="#ar"/><use transform="matrix(0.00868055555555555,0,0,0.00868055555555555,128.02083333333326,0)" xlink:href="#am"/><use transform="matrix(0.00868055555555555,0,0,0.00868055555555555,138.68923611111103,0)" xlink:href="#as"/><use transform="matrix(0.00868055555555555,0,0,0.00868055555555555,149.3576388888888,0)" xlink:href="#ap"/><use transform="matrix(0.00868055555555555,0,0,0.00868055555555555,160.02604166666657,0)" xlink:href="#aq"/><use transform="matrix(0.00868055555555555,0,0,0.00868055555555555,170.69444444444434,0)" xlink:href="#as"/></g><path fill="#333" d="M1060-1016c0 191-128 285-295 323v4c154 18 262 91 313 209 14 35 21 72 21 110 0 277-194 390-478 390-292 0-457-129-493-382l186-17c24 161 121 250 307 250 172 1 298-80 291-247-8-208-220-239-446-233v-156c217 9 409-34 409-232 0-152-102-225-264-225-159 0-264 88-278 233l-181-14c33-239 196-367 461-367 264 0 447 102 447 354" id="az"/><g id="p"><use transform="matrix(0.008680555555555556,0,0,0.008680555555555556,0,0)" xlink:href="#az"/><use transform="matrix(0.008680555555555556,0,0,0.008680555555555556,10.668402777777779,0)" xlink:href="#aj"/></g><path fill="#333" d="M713 0H515L10-1349h201C345-955 498-579 615-168c116-411 269-787 402-1181h201" id="aA"/><path fill="#333" d="M839-1335c-182-6-269 67-259 253h491v142H580V0H400v-940H138v-142h262c-15-293 132-408 418-402 94 2 200 7 281 21v145c-75-10-177-14-260-17" id="aB"/><path fill="#333" d="M631 20c-350 0-501-215-501-562 0-355 162-560 502-560 250 0 399 118 446 323l-192 14c-23-124-109-196-262-196-242 0-305 171-305 415 1 245 61 427 304 427 151 0 248-77 267-215l190 12C1039-107 883 20 631 20" id="aC"/><path fill="#333" d="M891-1484c-201 251-362 514-362 954 0 441 161 704 362 955H701C500 176 342-90 342-532c0-440 159-704 359-952h190" id="aD"/><path fill="#333" d="M528-1484c201 248 357 511 357 952 0 442-156 709-357 957H336C537 174 700-89 700-530c0-440-163-703-364-954h192" id="aE"/><g id="q"><use transform="matrix(0.008680555555555556,0,0,0.008680555555555556,0,0)" xlink:href="#aA"/><use transform="matrix(0.008680555555555556,0,0,0.008680555555555556,10.668402777777779,0)" xlink:href="#as"/><use transform="matrix(0.008680555555555556,0,0,0.008680555555555556,21.336805555555557,0)" xlink:href="#al"/><use transform="matrix(0.008680555555555556,0,0,0.008680555555555556,32.005208333333336,0)" xlink:href="#am"/><use transform="matrix(0.008680555555555556,0,0,0.008680555555555556,42.673611111111114,0)" xlink:href="#aB"/><use transform="matrix(0.008680555555555556,0,0,0.008680555555555556,53.34201388888889,0)" xlink:href="#am"/><use transform="matrix(0.008680555555555556,0,0,0.008680555555555556,64.01041666666667,0)" xlink:href="#aC"/><use transform="matrix(0.008680555555555556,0,0,0.008680555555555556,74.67881944444446,0)" xlink:href="#an"/><use transform="matrix(0.008680555555555556,0,0,0.008680555555555556,85.34722222222223,0)" xlink:href="#aw"/><use transform="matrix(0.008680555555555556,0,0,0.008680555555555556,96.015625,0)" xlink:href="#an"/><use transform="matrix(0.008680555555555556,0,0,0.008680555555555556,106.68402777777777,0)" xlink:href="#ax"/><use transform="matrix(0.008680555555555556,0,0,0.008680555555555556,117.35243055555554,0)" xlink:href="#ao"/><use transform="matrix(0.008680555555555556,0,0,0.008680555555555556,128.02083333333331,0)" xlink:href="#ay"/><use transform="matrix(0.008680555555555556,0,0,0.008680555555555556,138.6892361111111,0)" xlink:href="#ak"/><use transform="matrix(0.008680555555555556,0,0,0.008680555555555556,149.35763888888886,0)" xlink:href="#ar"/><use transform="matrix(0.008680555555555556,0,0,0.008680555555555556,160.02604166666663,0)" xlink:href="#am"/><use transform="matrix(0.008680555555555556,0,0,0.008680555555555556,170.6944444444444,0)" xlink:href="#as"/><use transform="matrix(0.008680555555555556,0,0,0.008680555555555556,181.36284722222217,0)" xlink:href="#ap"/><use transform="matrix(0.008680555555555556,0,0,0.008680555555555556,192.03124999999994,0)" xlink:href="#aq"/><use transform="matrix(0.008680555555555556,0,0,0.008680555555555556,202.69965277777771,0)" xlink:href="#as"/><use transform="matrix(0.008680555555555556,0,0,0.008680555555555556,213.36805555555546,0)" xlink:href="#aD"/><use transform="matrix(0.008680555555555556,0,0,0.008680555555555556,224.03645833333326,0)" xlink:href="#ax"/><use transform="matrix(0.008680555555555556,0,0,0.008680555555555556,234.70486111111103,0)" xlink:href="#an"/><use transform="matrix(0.008680555555555556,0,0,0.008680555555555556,245.3732638888888,0)" xlink:href="#ax"/><use transform="matrix(0.008680555555555556,0,0,0.008680555555555556,256.0416666666666,0)" xlink:href="#ao"/><use transform="matrix(0.008680555555555556,0,0,0.008680555555555556,266.71006944444434,0)" xlink:href="#ay"/><use transform="matrix(0.008680555555555556,0,0,0.008680555555555556,277.3784722222221,0)" xlink:href="#aE"/></g><path fill="#333" d="M937-319V0H757v-319H103v-140l635-890h199v888h188v142H937zm-180-835L257-461h500v-693" id="aF"/><g id="r"><use transform="matrix(0.008680555555555556,0,0,0.008680555555555556,0,0)" xlink:href="#aF"/><use transform="matrix(0.008680555555555556,0,0,0.008680555555555556,10.668402777777779,0)" xlink:href="#aj"/></g><g id="s"><use transform="matrix(0.008680555555555556,0,0,0.008680555555555556,0,0)" xlink:href="#aw"/><use transform="matrix(0.008680555555555556,0,0,0.008680555555555556,10.668402777777779,0)" xlink:href="#an"/><use transform="matrix(0.008680555555555556,0,0,0.008680555555555556,21.336805555555557,0)" xlink:href="#ax"/><use transform="matrix(0.008680555555555556,0,0,0.008680555555555556,32.005208333333336,0)" xlink:href="#ao"/><use transform="matrix(0.008680555555555556,0,0,0.008680555555555556,42.673611111111114,0)" xlink:href="#ay"/></g><path fill="#333" d="M102-681c0-398 126-689 513-689 165 0 291 58 379 174s132 287 132 515c-1 318-88 554-298 657-123 61-317 58-438-3-206-104-288-341-288-654zm749 406c94-160 97-656-5-807-57-85-130-132-231-132-104 0-178 47-234 132-101 153-99 655 1 809 57 89 130 138 232 138 109 0 184-49 237-140" id="aG"/><path fill="#333" d="M1003 0L516-638 353-469V0H162v-1349h191v673l572-673h225L646-777 1227 0h-224" id="aH"/><g id="t"><use transform="matrix(0.008680555555555556,0,0,0.008680555555555556,0,0)" xlink:href="#aG"/><use transform="matrix(0.008680555555555556,0,0,0.008680555555555556,10.668402777777779,0)" xlink:href="#aH"/></g><path fill="#333" d="M353-779c69-51 166-92 291-90 218 3 357 100 423 255 21 52 32 109 32 170 0 305-189 464-500 464-268 0-424-116-471-335l182-21c35 130 124 212 293 209 198-4 309-114 309-313 0-182-118-282-305-282-120 0-198 45-262 101H169l47-728h801v145H382" id="aI"/><g id="u"><use transform="matrix(0.008680555555555556,0,0,0.008680555555555556,0,0)" xlink:href="#aI"/><use transform="matrix(0.008680555555555556,0,0,0.008680555555555556,10.668402777777779,0)" xlink:href="#aj"/></g><g id="v"><use transform="matrix(0.008680555555555556,0,0,0.008680555555555556,0,0)" xlink:href="#ak"/><use transform="matrix(0.008680555555555556,0,0,0.008680555555555556,10.668402777777779,0)" xlink:href="#al"/><use transform="matrix(0.008680555555555556,0,0,0.008680555555555556,21.336805555555557,0)" xlink:href="#am"/><use transform="matrix(0.008680555555555556,0,0,0.008680555555555556,32.005208333333336,0)" xlink:href="#an"/><use transform="matrix(0.008680555555555556,0,0,0.008680555555555556,42.673611111111114,0)" xlink:href="#ak"/><use transform="matrix(0.008680555555555556,0,0,0.008680555555555556,53.34201388888889,0)" xlink:href="#ao"/><use transform="matrix(0.008680555555555556,0,0,0.008680555555555556,64.01041666666667,0)" xlink:href="#ap"/><use transform="matrix(0.008680555555555556,0,0,0.008680555555555556,74.67881944444446,0)" xlink:href="#aq"/><use transform="matrix(0.008680555555555556,0,0,0.008680555555555556,85.34722222222223,0)" xlink:href="#an"/><use transform="matrix(0.008680555555555556,0,0,0.008680555555555556,96.015625,0)" xlink:href="#ak"/><use transform="matrix(0.008680555555555556,0,0,0.008680555555555556,106.68402777777777,0)" xlink:href="#ar"/><use transform="matrix(0.008680555555555556,0,0,0.008680555555555556,117.35243055555554,0)" xlink:href="#am"/><use transform="matrix(0.008680555555555556,0,0,0.008680555555555556,128.02083333333331,0)" xlink:href="#as"/><use transform="matrix(0.008680555555555556,0,0,0.008680555555555556,138.6892361111111,0)" xlink:href="#ap"/><use transform="matrix(0.008680555555555556,0,0,0.008680555555555556,149.35763888888886,0)" xlink:href="#aq"/><use transform="matrix(0.008680555555555556,0,0,0.008680555555555556,160.02604166666663,0)" xlink:href="#as"/><use transform="matrix(0.008680555555555556,0,0,0.008680555555555556,170.6944444444444,0)" xlink:href="#aD"/><use transform="matrix(0.008680555555555556,0,0,0.008680555555555556,181.36284722222217,0)" xlink:href="#ax"/><use transform="matrix(0.008680555555555556,0,0,0.008680555555555556,192.03124999999994,0)" xlink:href="#an"/><use transform="matrix(0.008680555555555556,0,0,0.008680555555555556,202.69965277777771,0)" xlink:href="#ax"/><use transform="matrix(0.008680555555555556,0,0,0.008680555555555556,213.36805555555546,0)" xlink:href="#ao"/><use transform="matrix(0.008680555555555556,0,0,0.008680555555555556,224.03645833333326,0)" xlink:href="#ay"/><use transform="matrix(0.008680555555555556,0,0,0.008680555555555556,234.70486111111103,0)" xlink:href="#aE"/></g><path fill="#333" d="M672-881c271 0 424 163 424 435 0 291-160 466-455 466-367 0-490-287-490-662 0-324 85-568 293-680 129-70 351-59 460 16 73 50 125 123 153 223l-172 31c-31-108-107-172-232-172-259 0-316 252-323 529 59-113 178-186 342-186zm-37 756c186 0 278-124 278-313s-96-304-284-304c-163 0-281 93-281 261 0 157 65 270 168 327 35 19 75 29 119 29" id="aJ"/><g id="w"><use transform="matrix(0.008680555555555556,0,0,0.008680555555555556,0,0)" xlink:href="#aJ"/><use transform="matrix(0.008680555555555556,0,0,0.008680555555555556,10.668402777777779,0)" xlink:href="#aj"/></g><path fill="#333" d="M655-135c108 0 195-33 260-74v-336H622v-160h479v572C981-54 839 20 639 20c-388 0-526-306-526-701 0-406 129-689 529-689 261 0 392 137 461 331l-171 56c-47-131-122-231-288-231-281 0-330 245-330 533 0 179 28 314 84 407s142 139 257 139" id="aK"/><g id="x"><use transform="matrix(0.008680555555555556,0,0,0.008680555555555556,0,0)" xlink:href="#aK"/><use transform="matrix(0.008680555555555556,0,0,0.008680555555555556,10.668402777777779,0)" xlink:href="#al"/><use transform="matrix(0.008680555555555556,0,0,0.008680555555555556,21.336805555555557,0)" xlink:href="#an"/><use transform="matrix(0.008680555555555556,0,0,0.008680555555555556,32.005208333333336,0)" xlink:href="#av"/><use transform="matrix(0.008680555555555556,0,0,0.008680555555555556,42.673611111111114,0)" xlink:href="#an"/><use transform="matrix(0.008680555555555556,0,0,0.008680555555555556,53.34201388888889,0)" xlink:href="#aw"/><use transform="matrix(0.008680555555555556,0,0,0.008680555555555556,64.01041666666667,0)" xlink:href="#an"/><use transform="matrix(0.008680555555555556,0,0,0.008680555555555556,74.67881944444446,0)" xlink:href="#ax"/><use transform="matrix(0.008680555555555556,0,0,0.008680555555555556,85.34722222222223,0)" xlink:href="#ao"/><use transform="matrix(0.008680555555555556,0,0,0.008680555555555556,96.015625,0)" xlink:href="#ay"/><use transform="matrix(0.008680555555555556,0,0,0.008680555555555556,106.68402777777777,0)" xlink:href="#ak"/><use transform="matrix(0.008680555555555556,0,0,0.008680555555555556,117.35243055555554,0)" xlink:href="#ar"/><use transform="matrix(0.008680555555555556,0,0,0.008680555555555556,128.02083333333331,0)" xlink:href="#am"/><use transform="matrix(0.008680555555555556,0,0,0.008680555555555556,138.6892361111111,0)" xlink:href="#as"/><use transform="matrix(0.008680555555555556,0,0,0.008680555555555556,149.35763888888886,0)" xlink:href="#ap"/><use transform="matrix(0.008680555555555556,0,0,0.008680555555555556,160.02604166666663,0)" xlink:href="#aq"/><use transform="matrix(0.008680555555555556,0,0,0.008680555555555556,170.6944444444444,0)" xlink:href="#as"/><use transform="matrix(0.008680555555555556,0,0,0.008680555555555556,181.36284722222217,0)" xlink:href="#aD"/><use transform="matrix(0.008680555555555556,0,0,0.008680555555555556,192.03124999999994,0)" xlink:href="#ax"/><use transform="matrix(0.008680555555555556,0,0,0.008680555555555556,202.69965277777771,0)" xlink:href="#an"/><use transform="matrix(0.008680555555555556,0,0,0.008680555555555556,213.36805555555546,0)" xlink:href="#ax"/><use transform="matrix(0.008680555555555556,0,0,0.008680555555555556,224.03645833333326,0)" xlink:href="#ao"/><use transform="matrix(0.008680555555555556,0,0,0.008680555555555556,234.70486111111103,0)" xlink:href="#ay"/><use transform="matrix(0.008680555555555556,0,0,0.008680555555555556,245.3732638888888,0)" xlink:href="#aE"/></g><path fill="#333" d="M1069-1210C890-948 720-664 634-316c-25 105-38 210-38 316H408c9-385 153-667 302-925 57-98 120-190 185-279H158v-145h911v139" id="aL"/><g id="y"><use transform="matrix(0.008680555555555556,0,0,0.008680555555555556,0,0)" xlink:href="#aL"/><use transform="matrix(0.008680555555555556,0,0,0.008680555555555556,10.668402777777779,0)" xlink:href="#aj"/></g><path fill="#333" d="M904-1102c199 0 220 177 220 381V0H956v-686c-3-114 0-215-60-264-70-33-125-4-158 71-26 56-39 140-39 252V0H531v-686c-3-114-1-215-61-264-78-41-136 24-157 84-24 69-39 159-39 259V0H105c-3-360 6-732-6-1082h149c6 50 3 123 8 175 36-100 83-195 216-195 135 0 166 79 196 196 42-105 93-196 236-196" id="aM"/><g id="z"><use transform="matrix(0.008680555555555556,0,0,0.008680555555555556,0,0)" xlink:href="#ak"/><use transform="matrix(0.008680555555555556,0,0,0.008680555555555556,10.668402777777779,0)" xlink:href="#ao"/><use transform="matrix(0.008680555555555556,0,0,0.008680555555555556,21.336805555555557,0)" xlink:href="#ap"/><use transform="matrix(0.008680555555555556,0,0,0.008680555555555556,32.005208333333336,0)" xlink:href="#aB"/><use transform="matrix(0.008680555555555556,0,0,0.008680555555555556,42.673611111111114,0)" xlink:href="#am"/><use transform="matrix(0.008680555555555556,0,0,0.008680555555555556,53.34201388888889,0)" xlink:href="#al"/><use transform="matrix(0.008680555555555556,0,0,0.008680555555555556,64.01041666666667,0)" xlink:href="#aM"/><use transform="matrix(0.008680555555555556,0,0,0.008680555555555556,74.67881944444446,0)" xlink:href="#an"/><use transform="matrix(0.008680555555555556,0,0,0.008680555555555556,85.34722222222223,0)" xlink:href="#ak"/><use transform="matrix(0.008680555555555556,0,0,0.008680555555555556,96.015625,0)" xlink:href="#ao"/><use transform="matrix(0.008680555555555556,0,0,0.008680555555555556,106.68402777777777,0)" xlink:href="#ap"/><use transform="matrix(0.008680555555555556,0,0,0.008680555555555556,117.35243055555554,0)" xlink:href="#aq"/><use transform="matrix(0.008680555555555556,0,0,0.008680555555555556,128.02083333333331,0)" xlink:href="#an"/><use transform="matrix(0.008680555555555556,0,0,0.008680555555555556,138.6892361111111,0)" xlink:href="#ak"/><use transform="matrix(0.008680555555555556,0,0,0.008680555555555556,149.35763888888886,0)" xlink:href="#al"/><use transform="matrix(0.008680555555555556,0,0,0.008680555555555556,160.02604166666663,0)" xlink:href="#am"/><use transform="matrix(0.008680555555555556,0,0,0.008680555555555556,170.6944444444444,0)" xlink:href="#an"/><use transform="matrix(0.008680555555555556,0,0,0.008680555555555556,181.36284722222217,0)" xlink:href="#ax"/><use transform="matrix(0.008680555555555556,0,0,0.008680555555555556,192.03124999999994,0)" xlink:href="#an"/></g><path fill="#333" d="M429-1484c1 190-1 388 0 572 54-116 155-191 317-191 300 0 386 257 386 563 0 241-73 429-226 518-49 28-106 42-169 42-162 0-251-81-306-196h-4c-1 59-5 127-15 176H140c4-67 9-153 8-236v-1248h281zm66 648c-93 114-92 466 1 585 35 45 77 79 142 79 64 0 112-31 148-92 69-115 68-440-2-561-39-68-131-111-221-70-25 11-46 32-68 59" id="aN"/><path fill="#333" d="M775-193C708-75 621 20 439 20 226 20 106-93 106-306c0-251 170-341 417-346l223-4c4-143-12-264-148-264-103 0-141 58-150 153l-293-14c37-219 194-321 455-321 263 0 418 130 417 390v392c1 84 5 161 89 160 21 0 42-2 62-6v152c-57 15-108 27-180 26-145 0-202-73-217-205h-6zm-256 17c168 0 234-139 227-325-166 4-347-25-347 173 0 94 33 152 120 152" id="aO"/><path fill="#333" d="M768-1103c247 0 336 167 336 416V0H824v-619c-3-164-24-273-171-273-164 0-229 142-229 312V0H143c-4-359 9-736-8-1082h268c7 63 12 146 13 215h4c67-145 160-236 348-236" id="aP"/><path fill="#333" d="M1109-360C1066-122 902 20 624 20c-347 0-514-209-514-555 0-353 168-567 518-567 270 0 425 136 473 361l-283 14c-16-106-75-183-196-182-75 0-130 31-165 93s-52 152-52 270c0 249 74 374 221 374 120 0 188-82 201-201" id="aQ"/><path fill="#333" d="M616-1102c361 0 521 202 521 560 0 354-171 562-527 562C259 20 92-192 92-542c0-351 169-560 524-560zm-9 930c200-2 236-165 236-370 0-199-27-367-223-367-195 0-233 146-233 367 0 129 18 223 55 282s92 88 165 88" id="aR"/><g id="A"><use transform="matrix(0.010850694444444444,0,0,0.010850694444444444,0,0)" xlink:href="#aN"/><use transform="matrix(0.010850694444444444,0,0,0.010850694444444444,13.335503472222221,0)" xlink:href="#aO"/><use transform="matrix(0.010850694444444444,0,0,0.010850694444444444,26.671006944444443,0)" xlink:href="#aP"/><use transform="matrix(0.010850694444444444,0,0,0.010850694444444444,40.006510416666664,0)" xlink:href="#aQ"/><use transform="matrix(0.010850694444444444,0,0,0.010850694444444444,53.342013888888886,0)" xlink:href="#aR"/></g><path fill="#333" d="M802-909c-3-189-2-383-2-575h281v1248c-1 83 4 168 8 236H817c-9-50-14-117-15-176h-4C735-49 651 20 482 20 191 20 97-238 97-539c0-243 66-432 221-519 50-28 108-42 175-42 162 2 253 78 309 191zm-70 658c91-113 93-462 2-584-46-61-145-100-224-53-96 56-119 190-120 349 0 123 17 214 52 275 46 82 130 115 222 74 25-12 46-33 68-61" id="aS"/><path fill="#333" d="M1113-274C1038-96 884 20 626 20c-352 0-526-209-526-566 0-358 185-556 530-556 358 0 496 251 499 615H395c5 180 68 319 245 319 102 0 186-45 208-129zM857-663c-6-177-128-307-315-247-94 30-141 121-145 247h460" id="aT"/><g id="B"><use transform="matrix(0.010850694444444444,0,0,0.010850694444444444,0,0)" xlink:href="#aS"/><use transform="matrix(0.010850694444444444,0,0,0.010850694444444444,13.335503472222221,0)" xlink:href="#aT"/></g><path fill="#333" d="M622-916c-112 2-200 14-200 111 0 90 89 101 168 121 234 58 514 77 514 368C1104-4 751 54 434 5 267-21 161-112 121-270l247-37c24 111 113 145 252 141 114-3 226-12 226-124 0-101-103-113-192-134-225-54-490-76-490-351 0-247 201-328 458-328 245 0 413 88 457 292l-249 26c-16-98-92-133-208-131" id="aU"/><g id="C"><use transform="matrix(0.010850694444444444,0,0,0.010850694444444444,0,0)" xlink:href="#aS"/><use transform="matrix(0.010850694444444444,0,0,0.010850694444444444,13.335503472222221,0)" xlink:href="#aO"/><use transform="matrix(0.010850694444444444,0,0,0.010850694444444444,26.671006944444443,0)" xlink:href="#aS"/><use transform="matrix(0.010850694444444444,0,0,0.010850694444444444,40.006510416666664,0)" xlink:href="#aR"/><use transform="matrix(0.010850694444444444,0,0,0.010850694444444444,53.342013888888886,0)" xlink:href="#aU"/></g><path fill="#333" d="M794-190h353V0H118v-190h395v-1104H223v-190h571v1294" id="aV"/><path fill="#333" d="M794-190h353V0H118v-190h395v-702H223v-190h571v892zM513-1277v-207h281v207H513" id="aW"/><path fill="#333" d="M711 13c-250 0-386-99-385-349l2-556H161v-190h181l88-282h176v282h385v190H606v530c-10 130 45 186 174 184 91-2 176-11 255-27v186C933-1 833 13 711 13" id="aX"/><g id="D"><use transform="matrix(0.010850694444444444,0,0,0.010850694444444444,0,0)" xlink:href="#aQ"/><use transform="matrix(0.010850694444444444,0,0,0.010850694444444444,13.335503472222221,0)" xlink:href="#aV"/><use transform="matrix(0.010850694444444444,0,0,0.010850694444444444,26.671006944444443,0)" xlink:href="#aW"/><use transform="matrix(0.010850694444444444,0,0,0.010850694444444444,40.006510416666664,0)" xlink:href="#aT"/><use transform="matrix(0.010850694444444444,0,0,0.010850694444444444,53.342013888888886,0)" xlink:href="#aP"/><use transform="matrix(0.010850694444444444,0,0,0.010850694444444444,66.67751736111111,0)" xlink:href="#aX"/><use transform="matrix(0.010850694444444444,0,0,0.010850694444444444,80.01302083333334,0)" xlink:href="#aT"/></g><path fill="#333" d="M934-1102c199 0 220 177 220 381V0H926c-2-260 10-533-4-785-4-72-14-138-83-138-34 0-61 27-81 81s-29 134-29 241V0H501c-2-260 9-533-5-785-4-72-13-138-82-138-46 0-65 47-80 93-21 67-30 155-30 248V0H75c-3-360 6-732-6-1082h209c6 50 3 123 8 175 36-100 83-195 216-195 135 0 166 79 196 196 42-105 93-196 236-196" id="aY"/><g id="E"><use transform="matrix(0.010850694444444444,0,0,0.010850694444444444,0,0)" xlink:href="#aU"/><use transform="matrix(0.010850694444444444,0,0,0.010850694444444444,13.335503472222221,0)" xlink:href="#aW"/><use transform="matrix(0.010850694444444444,0,0,0.010850694444444444,26.671006944444443,0)" xlink:href="#aU"/><use transform="matrix(0.010850694444444444,0,0,0.010850694444444444,40.006510416666664,0)" xlink:href="#aX"/><use transform="matrix(0.010850694444444444,0,0,0.010850694444444444,53.342013888888886,0)" xlink:href="#aT"/><use transform="matrix(0.010850694444444444,0,0,0.010850694444444444,66.67751736111111,0)" xlink:href="#aY"/><use transform="matrix(0.010850694444444444,0,0,0.010850694444444444,80.01302083333334,0)" xlink:href="#aO"/></g><path fill="#333" d="M844-1321c-130 0-195 53-191 182v57h443v190H653V0H373v-892H117v-190h256v-83c5-247 162-348 422-349 120-1 232 13 327 28v184c-84-10-183-19-278-19" id="aZ"/><g id="F"><use transform="matrix(0.010850694444444444,0,0,0.010850694444444444,0,0)" xlink:href="#aQ"/><use transform="matrix(0.010850694444444444,0,0,0.010850694444444444,13.335503472222221,0)" xlink:href="#aO"/><use transform="matrix(0.010850694444444444,0,0,0.010850694444444444,26.671006944444443,0)" xlink:href="#aZ"/><use transform="matrix(0.010850694444444444,0,0,0.010850694444444444,40.006510416666664,0)" xlink:href="#aT"/></g></defs></g></svg>